<svg width="162" height="134" viewBox="0 0 162 134" fill="none" xmlns="http://www.w3.org/2000/svg">
<path d="M13.65 107.1H30V56.85L14.25 64.8L4.95 48.3L35.85 29.4H56.7L55.2 47.85V107.1H70.8V126H13.65V107.1Z" fill="white"/>
<circle cx="106.12" cy="78.12" r="55.12" fill="#FAC300"/>
<g clip-path="url(#clip0_811_69044)">
<path opacity="0.975" fill-rule="evenodd" clip-rule="evenodd" d="M82.0713 44.1338C94.3055 44.1338 106.54 44.1338 118.774 44.1338C119.895 44.4736 120.91 45.0257 121.821 45.79C123.967 47.8917 126.065 50.0338 128.115 52.2163C128.789 53.2666 129.142 54.4149 129.175 55.6613C129.219 60.8288 129.263 65.9963 129.308 71.1638C131.546 68.8368 133.865 66.6065 136.264 64.4725C139.402 62.9905 142.074 63.5868 144.28 66.2613C144.703 66.9374 145.034 67.6441 145.274 68.3813C145.274 69.2204 145.274 70.0597 145.274 70.8988C144.947 71.9486 144.439 72.9202 143.75 73.8138C138.936 78.6279 134.122 83.4422 129.308 88.2563C129.302 94.6193 129.213 100.979 129.043 107.336C128.378 109.745 126.854 111.291 124.471 111.974C110.338 111.974 96.2047 111.974 82.0713 111.974C79.6863 111.267 78.1405 109.721 77.4338 107.336C77.4338 87.8147 77.4338 68.2929 77.4338 48.7713C78.1405 46.3863 79.6863 44.8405 82.0713 44.1338ZM83.3963 48.1088C93.3338 48.1088 103.271 48.1088 113.209 48.1088C113.187 51.6866 113.209 55.2641 113.275 58.8413C113.518 59.3492 113.893 59.7247 114.401 59.9675C117.979 60.0338 121.556 60.0559 125.134 60.0338C125.156 65.1573 125.134 70.2807 125.068 75.4038C122.108 78.3629 119.149 81.3222 116.19 84.2813C115.028 87.4596 113.946 90.6617 112.944 93.8875C113.054 95.2347 113.783 95.9634 115.13 96.0738C118.16 95.1081 121.185 94.1144 124.206 93.0925C124.551 92.9755 124.838 92.7768 125.068 92.4963C125.156 97.0013 125.156 101.506 125.068 106.011C124.957 107.182 124.317 107.822 123.146 107.933C109.671 108.064 96.2001 108.019 82.7338 107.8C82.1817 107.601 81.8063 107.226 81.6076 106.674C81.5192 87.5938 81.5192 68.5138 81.6076 49.4338C82.0028 48.7057 82.599 48.264 83.3963 48.1088ZM117.316 48.1088C117.711 48.2102 118.109 48.3206 118.509 48.44C120.607 50.538 122.705 52.6359 124.803 54.7338C124.921 55.13 125.032 55.5275 125.134 55.9263C122.53 56.0587 119.924 56.1029 117.316 56.0588C117.316 53.4088 117.316 50.7588 117.316 48.1088ZM138.649 67.8513C140.524 67.6725 141.341 68.5118 141.1 70.3688C140.403 71.3311 139.608 72.2145 138.715 73.0188C137.81 72.1134 136.904 71.2079 135.999 70.3025C136.829 69.4058 137.712 68.5886 138.649 67.8513ZM132.951 73.2838C133.896 74.1624 134.824 75.0678 135.734 76C132.642 79.0917 129.55 82.1834 126.459 85.275C126.37 85.3634 126.282 85.3634 126.194 85.275C125.377 84.4579 124.56 83.6409 123.743 82.8238C123.654 82.7354 123.654 82.6472 123.743 82.5588C126.839 79.4847 129.908 76.3929 132.951 73.2838ZM120.629 85.6063C121.574 86.4849 122.501 87.3903 123.411 88.3225C123.053 88.7251 122.656 89.0784 122.219 89.3825C120.977 89.789 119.741 90.2087 118.509 90.6413C118.465 90.5972 118.42 90.5529 118.376 90.5088C118.809 89.2771 119.229 88.0403 119.635 86.7988C119.944 86.3794 120.276 85.9819 120.629 85.6063Z" fill="#FEFFFE"/>
<path opacity="0.992" fill-rule="evenodd" clip-rule="evenodd" d="M86.5762 64.0088C96.3814 63.9867 106.186 64.0088 115.991 64.075C116.766 64.4765 117.208 65.1169 117.316 65.9963C117.208 66.8757 116.766 67.5161 115.991 67.9175C106.186 68.0059 96.3812 68.0059 86.5762 67.9175C85.3876 67.2288 85.0563 66.2351 85.5825 64.9363C85.8566 64.5512 86.1879 64.2421 86.5762 64.0088Z" fill="#FEFFFE"/>
<path opacity="0.99" fill-rule="evenodd" clip-rule="evenodd" d="M86.5762 71.9587C93.7314 71.9366 100.886 71.9587 108.041 72.025C108.816 72.4265 109.258 73.0668 109.366 73.9462C109.258 74.8256 108.816 75.466 108.041 75.8675C100.886 75.9559 93.7312 75.9559 86.5762 75.8675C85.3876 75.1788 85.0563 74.185 85.5825 72.8862C85.8566 72.5012 86.1879 72.1921 86.5762 71.9587Z" fill="#FEFFFE"/>
<path opacity="0.99" fill-rule="evenodd" clip-rule="evenodd" d="M86.5762 79.9087C93.7314 79.8866 100.886 79.9087 108.041 79.9749C108.816 80.3764 109.258 81.0168 109.366 81.8962C109.258 82.7756 108.816 83.416 108.041 83.8174C100.886 83.9058 93.7312 83.9058 86.5762 83.8174C85.3876 83.1287 85.0563 82.135 85.5825 80.8362C85.8566 80.4511 86.1879 80.142 86.5762 79.9087Z" fill="#FEFFFE"/>
<path opacity="0.99" fill-rule="evenodd" clip-rule="evenodd" d="M86.5762 87.8586C93.7314 87.8365 100.886 87.8586 108.041 87.9249C108.816 88.3264 109.258 88.9667 109.366 89.8461C109.258 90.7255 108.816 91.3659 108.041 91.7674C100.886 91.8558 93.7312 91.8558 86.5762 91.7674C85.3876 91.0787 85.0563 90.0849 85.5825 88.7861C85.8566 88.4011 86.1879 88.092 86.5762 87.8586Z" fill="#FEFFFE"/>
<path opacity="0.984" fill-rule="evenodd" clip-rule="evenodd" d="M102.476 100.049C106.981 100.026 111.486 100.049 115.991 100.115C116.766 100.516 117.208 101.157 117.316 102.036C117.208 102.915 116.766 103.556 115.991 103.957C111.486 104.046 106.981 104.046 102.476 103.957C101.287 103.269 100.956 102.275 101.482 100.976C101.757 100.591 102.088 100.282 102.476 100.049Z" fill="#FEFFFE"/>
</g>
<defs>
<clipPath id="clip0_811_69044">
<rect width="67.84" height="67.84" fill="white" transform="translate(77.5 44.2)"/>
</clipPath>
</defs>
</svg>
