<svg width="157" height="168" viewBox="0 0 157 168" fill="none" xmlns="http://www.w3.org/2000/svg">
<path d="M16.95 60.6L3.15 43.95C12.9 34.2 26.1 27.45 39.75 27.45C60.3 27.45 70.8 38.7 70.8 55.5C70.8 66.6 66.45 75 57.6 84.9L39 105.75H73.8V126H3.9V110.85L34.95 75.75C40.95 68.85 44.25 64.95 44.25 58.35C44.25 52.65 40.35 50.1 35.85 50.1C30.45 50.1 23.25 54.6 16.95 60.6Z" fill="white"/>
<circle cx="101.12" cy="78.12" r="55.12" fill="#FAC300"/>
<path opacity="0.951" fill-rule="evenodd" clip-rule="evenodd" d="M74.9532 44.0281C90.0748 44.0053 105.196 44.0281 120.318 44.0964C124.529 45.4374 127.193 48.2385 128.311 52.4998C128.501 54.7719 128.57 57.0492 128.516 59.3318C130.975 60.264 132.82 61.9037 134.05 64.2509C134.39 65.0163 134.708 65.7906 135.007 66.5738C135.098 76.0475 135.098 85.5213 135.007 94.995C133.76 99.2929 130.959 101.957 126.603 102.988C124.605 103.179 122.601 103.247 120.591 103.193C120.654 105.662 120.586 108.122 120.386 110.572C120.004 111.091 119.571 111.569 119.088 112.007C118.314 112.098 117.54 112.098 116.765 112.007C112.567 109.038 108.331 106.123 104.058 103.262C97.0435 103.216 90.0292 103.171 83.015 103.125C78.4246 102.315 75.3957 99.6963 73.9284 95.2683C73.8119 94.726 73.7208 94.1794 73.6551 93.6286C73.6096 91.7156 73.564 89.8027 73.5185 87.8897C70.3013 86.3116 68.1606 83.8066 67.0964 80.3745C67.0053 70.9008 67.0053 61.4269 67.0964 51.9532C68.3704 47.9692 70.9894 45.3275 74.9532 44.0281ZM76.8662 46.8975C90.758 46.8747 104.65 46.8975 118.542 46.9658C122.653 47.5249 124.908 49.8706 125.305 54.0028C125.396 62.1101 125.396 70.2176 125.305 78.3249C125.084 82.2347 123.058 84.5804 119.225 85.3619C111.887 85.3647 104.554 85.4559 97.2257 85.6351C93.0007 88.465 88.7877 91.3116 84.5864 94.1752C84.5409 91.9434 84.4953 89.7115 84.4498 87.4798C84.0356 86.4275 83.2841 85.7671 82.1952 85.4985C80.1456 85.453 78.096 85.4074 76.0464 85.3619C72.8507 84.6713 70.8694 82.7356 70.1025 79.5546C69.9466 75.1178 69.8783 70.677 69.8975 66.2322C69.8783 61.7874 69.9466 57.3466 70.1025 52.9097C71.0152 49.3772 73.2698 47.3731 76.8662 46.8975ZM128.516 62.6112C130.696 63.9529 131.903 65.9115 132.137 68.4867C132.27 77.0533 132.225 85.616 132.001 94.1752C131.108 97.7093 128.854 99.6905 125.237 100.119C123.324 100.165 121.411 100.21 119.498 100.256C118.61 100.597 117.995 101.212 117.653 102.1C117.631 104.334 117.562 106.565 117.448 108.796C113.26 105.881 109.024 103.035 104.741 100.256C97.6811 100.21 90.6214 100.165 83.5616 100.119C79.4517 99.5618 77.1972 97.2161 76.7979 93.0821C76.7296 91.5797 76.7068 90.0766 76.7296 88.5729C78.3237 88.5729 79.9178 88.5729 81.512 88.5729C81.4892 90.8962 81.512 93.2191 81.5803 95.5416C82.4146 97.429 83.7582 97.9529 85.6112 97.113C89.7323 94.2553 93.877 91.4313 98.0455 88.6412C105.105 88.5957 112.165 88.5501 119.225 88.5046C121.253 88.2869 123.03 87.5126 124.554 86.1817C126.315 84.6949 127.522 82.8503 128.175 80.6478C128.291 80.1054 128.382 79.5589 128.448 79.0081C128.516 73.5426 128.539 68.077 128.516 62.6112Z" fill="white"/>
<path opacity="0.935" fill-rule="evenodd" clip-rule="evenodd" d="M76.7295 48.2639C77.9169 48.2441 78.6456 48.8134 78.9158 49.9719C78.8683 50.6124 78.5494 51.0679 77.9593 51.3383C75.5681 51.3611 74.3611 52.5681 74.3383 54.9593C73.4064 56.2271 72.4499 56.2271 71.4689 54.9593C71.3358 52.3054 72.4517 50.3241 74.8166 49.0155C75.4732 48.7746 76.1109 48.5241 76.7295 48.2639Z" fill="white"/>
<path opacity="0.93" fill-rule="evenodd" clip-rule="evenodd" d="M122.231 76.4119C123.907 76.8493 124.431 77.8969 123.802 79.5546C122.688 82.7251 120.479 84.1598 117.175 83.8588C116.083 82.8971 116.128 81.9861 117.312 81.126C119.75 81.0563 121.003 79.8038 121.069 77.3683C121.406 76.961 121.793 76.6422 122.231 76.4119Z" fill="white"/>
<path opacity="0.934" fill-rule="evenodd" clip-rule="evenodd" d="M128.926 91.1692C129.721 91.2095 130.336 91.5739 130.771 92.2623C130.748 95.017 129.496 96.9983 127.013 98.2062C126.302 98.4441 125.573 98.6035 124.827 98.6844C123.838 98.6512 123.291 98.1503 123.187 97.1814C123.237 96.4696 123.601 95.9914 124.281 95.7467C126.592 95.6666 127.754 94.4596 127.765 92.1257C128.018 91.626 128.405 91.3072 128.926 91.1692Z" fill="white"/>
</svg>
