<svg width="174" height="168" viewBox="0 0 174 168" fill="none" xmlns="http://www.w3.org/2000/svg">
<path d="M15.45 58.05L3.45 41.85C5.75 39.75 8.35 37.8 11.25 36C14.15 34.1 18.4 32.2 24 30.3C29.6 28.4 35.35 27.45 41.25 27.45C49.95 27.45 56.75 29.65 61.65 34.05C66.65 38.45 69.15 44.1 69.15 51C69.15 59.8 65.25 66.9 57.45 72.3C66.15 79.4 70.5 87.75 70.5 97.35C70.5 105.85 67.55 113 61.65 118.8C55.75 124.5 47 127.35 35.4 127.35C29.6 127.35 23.8 126.6 18 125.1C12.2 123.6 7.3 121.75 3.3 119.55L10.05 99.75C13.55 101.55 17.65 103.1 22.35 104.4C27.15 105.7 31.05 106.35 34.05 106.35C41.45 106.35 45.15 103.75 45.15 98.55C45.15 94.85 43.15 90.5 39.15 85.5C34.45 87.1 29.05 88.45 22.95 89.55L17.1 71.4C25.7 69.6 32.25 67.65 36.75 65.55C41.35 63.35 43.65 60.35 43.65 56.55C43.65 51.55 41 49.05 35.7 49.05C30.3 49.05 23.55 52.05 15.45 58.05Z" fill="white"/>
<circle cx="118.12" cy="78.12" r="55.12" fill="#FAC300"/>
<path opacity="0.901" fill-rule="evenodd" clip-rule="evenodd" d="M95.4198 56.8274C110.449 56.8071 125.478 56.8274 140.507 56.8883C143.004 57.4739 144.903 58.8741 146.203 61.089C146.811 62.2656 147.131 63.5237 147.163 64.8635C147.243 74.3607 147.243 83.8579 147.163 93.3551C146.891 96.9883 145.073 99.5452 141.707 101.026C140.842 101.26 139.963 101.402 139.069 101.452C124.999 101.533 110.929 101.533 96.8588 101.452C93.0668 101.17 90.4886 99.2826 89.1243 95.7903C88.9268 94.9903 88.8068 94.1787 88.7645 93.3551C88.6846 83.8579 88.6846 74.3607 88.7645 64.8635C89.0555 61.2841 90.7942 58.7474 93.9808 57.2536C94.4855 57.1464 94.9651 57.0043 95.4198 56.8274ZM95.8994 60.1149C110.609 60.0946 125.318 60.1149 140.028 60.1758C141.465 60.5009 142.564 61.2923 143.325 62.5501C143.54 62.9754 143.7 63.4218 143.805 63.8895C143.885 73.9955 143.885 84.1014 143.805 94.2074C143.31 96.1947 142.091 97.4731 140.148 98.0428C125.358 98.1241 110.569 98.1241 95.7795 98.0428C93.8367 97.4731 92.6175 96.1947 92.1221 94.2074C92.0422 84.1014 92.0422 73.9955 92.1221 63.8895C92.4981 62.2505 93.4375 61.0937 94.9401 60.4193C95.2771 60.3241 95.5969 60.2226 95.8994 60.1149ZM105.972 68.3945C108.199 68.2335 109.658 69.2075 110.349 71.3168C110.517 74.5558 109.018 76.0778 105.852 75.8827C103.726 75.1822 102.827 73.7009 103.154 71.4385C103.202 71.01 103.322 70.6042 103.514 70.2209C104.135 69.3283 104.954 68.7195 105.972 68.3945ZM106.092 83.7362C110.29 83.7334 112.968 85.7626 114.126 89.8241C109.21 89.8241 104.293 89.8241 99.377 89.8241C99.9294 87.2957 101.348 85.4693 103.634 84.345C104.456 84.0854 105.276 83.8824 106.092 83.7362Z" fill="white"/>
<path opacity="0.923" fill-rule="evenodd" clip-rule="evenodd" d="M105.853 65.1072C109.95 65.0039 112.528 66.9521 113.587 70.9516C113.983 74.4398 112.664 76.9967 109.63 78.6224C105.585 79.978 102.487 78.8212 100.336 75.1523C99.0512 71.1226 100.15 68.0177 103.634 65.8377C104.393 65.6005 105.133 65.357 105.853 65.1072ZM105.972 68.3947C104.954 68.7196 104.135 69.3284 103.514 70.221C103.322 70.6043 103.202 71.0102 103.154 71.4386C102.827 73.701 103.726 75.1824 105.853 75.8828C109.018 76.0779 110.517 74.5559 110.349 71.3169C109.658 69.2076 108.199 68.2336 105.972 68.3947Z" fill="white"/>
<path opacity="0.91" fill-rule="evenodd" clip-rule="evenodd" d="M122.88 68.8817C127.877 68.8613 132.873 68.8817 137.87 68.9425C139.074 69.356 139.453 70.1881 139.009 71.4386C138.705 71.6666 138.406 71.8899 138.109 72.1083C132.953 72.1895 127.797 72.1895 122.64 72.1083C121.544 71.577 121.265 70.745 121.801 69.6122C122.001 69.4904 122.161 69.3281 122.281 69.1252C122.501 69.0609 122.701 68.9798 122.88 68.8817Z" fill="white"/>
<path opacity="0.937" fill-rule="evenodd" clip-rule="evenodd" d="M122.52 77.5267C127.757 77.5063 132.993 77.5267 138.229 77.5875C139.156 78.1367 139.416 78.9281 139.009 79.9618C138.76 80.1995 138.5 80.4227 138.229 80.6315C132.993 80.7127 127.757 80.7127 122.52 80.6315C121.588 80.1044 121.308 79.313 121.681 78.2572C121.913 77.9389 122.193 77.6954 122.52 77.5267Z" fill="white"/>
<path opacity="0.92" fill-rule="evenodd" clip-rule="evenodd" d="M106.692 80.3269C112.464 80.8233 116.042 83.9078 117.424 89.5806C117.524 90.4358 117.504 91.2881 117.364 92.1375C117.112 92.5546 116.753 92.8387 116.285 92.9898C109.889 93.1521 103.494 93.1521 97.0986 92.9898C96.1899 92.5857 95.8302 91.8755 96.0194 90.8591C96.2694 86.715 98.168 83.6508 101.715 81.6663C102.237 81.4898 102.737 81.2665 103.214 80.9966C104.386 80.7445 105.545 80.5214 106.692 80.3269ZM106.092 83.7362C105.276 83.8824 104.456 84.0854 103.634 84.345C101.348 85.4693 99.9294 87.2957 99.377 89.8241C104.293 89.8241 109.21 89.8241 114.126 89.8241C112.968 85.7626 110.29 83.7334 106.092 83.7362Z" fill="white"/>
<path opacity="0.913" fill-rule="evenodd" clip-rule="evenodd" d="M122.64 86.0496C127.797 86.0293 132.953 86.0496 138.109 86.1105C139.184 86.645 139.464 87.477 138.949 88.6066C138.649 88.8603 138.329 89.0835 137.989 89.2762C132.913 89.3574 127.837 89.3574 122.76 89.2762C121.674 88.8526 121.294 88.0612 121.621 86.9019C121.879 86.4965 122.219 86.2124 122.64 86.0496Z" fill="white"/>
<path opacity="0.982" fill-rule="evenodd" clip-rule="evenodd" d="M81.0038 51.782C83.7195 51.7722 86.4351 51.782 89.1506 51.8115C90.0972 52.2787 90.4023 53.0166 90.0657 54.0253C89.8315 54.5025 89.4478 54.7878 88.9145 54.8813C87.0841 54.8912 85.254 54.9207 83.4243 54.9699C83.3269 55.0376 83.2384 55.1163 83.1586 55.206C83.1569 57.1176 83.1175 59.0264 83.0405 60.9324C82.7847 61.6025 82.2928 61.9567 81.5647 61.995C80.8236 61.9611 80.312 61.6069 80.0298 60.9324C79.9904 58.2168 79.9904 55.5012 80.0298 52.7856C80.1005 52.5675 80.2087 52.3707 80.3545 52.1953C80.5647 52.0413 80.7812 51.9036 81.0038 51.782Z" fill="white"/>
<path opacity="0.982" fill-rule="evenodd" clip-rule="evenodd" d="M146.373 51.782C149.088 51.7722 151.804 51.782 154.519 51.8115C155.001 51.9788 155.326 52.3035 155.493 52.7856C155.533 55.5012 155.533 58.2168 155.493 60.9324C155.131 61.7286 154.512 62.0729 153.634 61.9655C152.946 61.8095 152.543 61.3864 152.424 60.6962C152.404 58.8662 152.384 57.0361 152.365 55.206C152.285 55.1163 152.196 55.0376 152.099 54.9699C150.269 54.9207 148.439 54.8912 146.609 54.8813C145.637 54.6411 145.214 54.0213 145.339 53.0217C145.462 52.4174 145.806 52.0042 146.373 51.782Z" fill="white"/>
<path opacity="0.982" fill-rule="evenodd" clip-rule="evenodd" d="M81.24 96.0094C81.8612 95.9514 82.3827 96.1482 82.8044 96.5998C82.9142 96.7407 82.9929 96.8981 83.0405 97.072C83.1175 98.978 83.1569 100.887 83.1586 102.798C83.2384 102.888 83.3269 102.967 83.4243 103.035C85.3355 103.066 87.2443 103.115 89.1506 103.182C90.0506 103.578 90.3753 104.256 90.1247 105.219C89.9574 105.701 89.6328 106.026 89.1506 106.193C86.435 106.232 83.7194 106.232 81.0038 106.193C80.5217 106.026 80.197 105.701 80.0298 105.219C79.9904 102.503 79.9904 99.7876 80.0298 97.072C80.2497 96.5052 80.6531 96.151 81.24 96.0094Z" fill="white"/>
<path opacity="0.982" fill-rule="evenodd" clip-rule="evenodd" d="M153.64 96.0093C154.518 95.9313 155.138 96.2856 155.499 97.072C155.539 99.7876 155.539 102.503 155.499 105.219C155.332 105.701 155.007 106.026 154.525 106.193C151.81 106.232 149.094 106.232 146.379 106.193C145.582 105.83 145.238 105.21 145.345 104.333C145.48 103.76 145.824 103.376 146.379 103.182C148.285 103.115 150.194 103.066 152.105 103.034C152.202 102.967 152.291 102.888 152.371 102.798C152.39 100.968 152.41 99.1382 152.43 97.3081C152.478 96.9941 152.606 96.7186 152.813 96.4816C153.075 96.2919 153.351 96.1345 153.64 96.0093Z" fill="white"/>
</svg>
