<svg width="169" height="168" viewBox="0 0 169 168" fill="none" xmlns="http://www.w3.org/2000/svg">
<path d="M53.25 61.35H67.5V85.35H79.95V105.15H67.5V126H42.3V104.85H5.4V88.65L34.35 26.4L54.3 36.3L31.05 85.35H44.4L53.25 61.35Z" fill="white"/>
<circle cx="113.36" cy="78.12" r="55.12" fill="#FAC300"/>
<g clip-path="url(#clip0_811_69048)">
<path opacity="0.946" fill-rule="evenodd" clip-rule="evenodd" d="M108.524 37.7737C109.054 37.7737 109.584 37.7737 110.114 37.7737C110.502 38.007 110.833 38.3161 111.107 38.7012C111.85 40.1425 112.557 41.6 113.227 43.0737C113.468 45.1494 112.563 46.0107 110.511 45.6574C110.166 45.5404 109.879 45.3416 109.65 45.0612C108.742 43.3552 107.925 41.6106 107.199 39.8274C107.305 38.9079 107.747 38.2233 108.524 37.7737Z" fill="white"/>
<path opacity="0.946" fill-rule="evenodd" clip-rule="evenodd" d="M124.556 37.7737C125.042 37.7737 125.528 37.7737 126.014 37.7737C127.119 38.3957 127.495 39.3232 127.14 40.5562C126.389 42.0578 125.638 43.5595 124.887 45.0612C123.863 46.0466 122.803 46.0908 121.707 45.1937C121.28 44.5494 121.148 43.8428 121.31 43.0737C121.981 41.6 122.687 40.1425 123.43 38.7012C123.756 38.3062 124.132 37.997 124.556 37.7737Z" fill="white"/>
<path opacity="0.951" fill-rule="evenodd" clip-rule="evenodd" d="M100.706 49.6987C102.473 49.6766 104.24 49.6987 106.006 49.765C107.156 50.3202 107.575 51.2256 107.265 52.4812C106.957 53.1335 106.449 53.5531 105.741 53.74C103.967 53.8624 102.2 53.8183 100.441 53.6075C99.3208 52.8526 99.0337 51.8589 99.5799 50.6262C99.9031 50.2352 100.278 49.926 100.706 49.6987Z" fill="white"/>
<path opacity="0.967" fill-rule="evenodd" clip-rule="evenodd" d="M130.519 105.614C124.512 105.614 118.505 105.614 112.499 105.614C108.022 105.124 103.649 104.108 99.3811 102.566C99.686 103.941 99.2444 104.957 98.0561 105.614C93.5953 105.614 89.1345 105.614 84.6736 105.614C84.0464 105.317 83.6268 104.831 83.4149 104.156C83.3265 93.1587 83.3265 82.1612 83.4149 71.1637C83.6136 70.3466 84.1215 69.8387 84.9386 69.64C89.267 69.5516 93.5953 69.5516 97.9236 69.64C99.0699 70.096 99.5999 70.9573 99.5136 72.2237C102.402 70.9891 104.897 69.2223 107 66.9237C108.666 64.2246 109.814 61.3096 110.445 58.1787C110.919 55.8139 111.228 53.4289 111.372 51.0237C111.612 50.4309 112.031 50.0113 112.631 49.765C117.326 49.0534 120.705 50.798 122.767 54.9987C123.409 56.9507 123.542 58.9382 123.165 60.9612C122.966 63.5227 122.525 66.0402 121.84 68.5137C121.71 68.8585 121.556 69.1897 121.376 69.5075C126.897 69.5516 132.418 69.5958 137.939 69.64C141.232 70.2622 142.999 72.2497 143.239 75.6025C143.185 77.1094 142.7 78.4565 141.781 79.6437C143.628 82.2077 143.694 84.8136 141.98 87.4612C141.16 88.4777 140.122 89.1403 138.866 89.4487C139.834 92.8781 138.774 95.4618 135.686 97.2C135.43 97.3077 135.165 97.3739 134.891 97.3987C135.866 101.457 134.408 104.196 130.519 105.614ZM115.281 53.8062C117.679 54.239 119.004 55.6745 119.256 58.1125C119.072 60.8319 118.608 63.5039 117.865 66.1287C117.302 67.8739 116.463 69.4639 115.347 70.8987C115.027 72.2242 115.491 73.1296 116.739 73.615C123.717 73.6591 130.695 73.7033 137.674 73.7475C139.096 74.4378 139.428 75.4757 138.667 76.8612C138.481 77.0317 138.282 77.1864 138.071 77.325C133.662 77.4989 129.246 77.5872 124.821 77.59C123.474 78.0084 122.966 78.9138 123.297 80.3062C123.553 80.9592 124.016 81.3787 124.689 81.565C128.973 81.6091 133.257 81.6533 137.541 81.6975C139.052 82.3875 139.427 83.4696 138.667 84.9437C138.409 85.2609 138.077 85.4597 137.674 85.54C133.39 85.5841 129.105 85.6283 124.821 85.6725C123.261 86.2875 122.841 87.3697 123.562 88.9187C123.819 89.264 124.15 89.5069 124.556 89.6475C127.515 89.6916 130.475 89.7358 133.434 89.78C135.073 90.3263 135.493 91.3641 134.692 92.8937C134.463 93.1742 134.176 93.373 133.831 93.49C130.872 93.5341 127.913 93.5783 124.954 93.6225C123.54 93.9806 122.987 94.8861 123.297 96.3387C123.54 96.935 123.96 97.3546 124.556 97.5975C126.373 97.6098 128.184 97.6982 129.989 97.8625C131.399 98.8187 131.532 99.923 130.386 101.175C130.21 101.263 130.033 101.352 129.856 101.44C123.714 101.566 117.575 101.521 111.439 101.307C109.422 101.057 107.435 100.66 105.476 100.115C103.446 99.4603 101.414 98.8199 99.3811 98.1937C99.337 91.0823 99.3811 83.9716 99.5136 76.8612C102.603 75.4946 105.474 73.7941 108.126 71.76C110.085 69.9762 111.52 67.8341 112.432 65.3337C113.861 61.6078 114.81 57.7653 115.281 53.8062ZM87.4561 73.6812C90.062 73.6812 92.6678 73.6812 95.2736 73.6812C95.2736 82.9562 95.2736 92.2312 95.2736 101.506C92.6678 101.506 90.062 101.506 87.4561 101.506C87.4561 92.2312 87.4561 82.9562 87.4561 73.6812Z" fill="white"/>
<path opacity="0.949" fill-rule="evenodd" clip-rule="evenodd" d="M128.531 49.6986C130.44 49.6391 132.339 49.7054 134.229 49.8973C135.515 50.9544 135.604 52.1027 134.494 53.3423C134.23 53.5743 133.921 53.7068 133.566 53.7398C131.836 53.862 130.114 53.8179 128.399 53.6073C127.17 52.8534 126.883 51.8155 127.537 50.4936C127.818 50.1463 128.149 49.8813 128.531 49.6986Z" fill="white"/>
</g>
<defs>
<clipPath id="clip0_811_69048">
<rect width="67.84" height="67.84" fill="white" transform="translate(79.4399 37.8398)"/>
</clipPath>
</defs>
</svg>
