<svg width="1315" height="756" viewBox="0 0 1315 756" fill="none" xmlns="http://www.w3.org/2000/svg">
<g clip-path="url(#clip0_677_15788)">
<path fill-rule="evenodd" clip-rule="evenodd" d="M1235.92 836C1476.47 962.838 1565.7 1266.08 1435.36 1513.2C1304.88 1760.6 1004.26 1858.14 763.706 1731.15C523.297 1604.32 434.074 1301.07 564.556 1053.81C694.892 806.697 995.658 709.163 1235.92 836Z" fill="white"/>
<path fill-rule="evenodd" clip-rule="evenodd" d="M1521.38 1555.48C1494.55 1606.36 1460.73 1653.3 1420.78 1694.85C1400.52 1716.14 1378.21 1736.26 1352.84 1755.79C1344.53 1762.35 1335.49 1768.77 1326.6 1775.04C1251.37 1826.65 1165.36 1860.47 1077.45 1873.88C1067.24 1875.19 1056.74 1876.51 1046.83 1877.67C955.711 1886.42 867.946 1874.32 784.554 1842.1C774.64 1838.45 764.435 1834.23 753.938 1829.12C745.044 1825.19 734.402 1820.08 723.467 1814.25C655.238 1778.24 596.193 1729.99 547.499 1670.21C542.25 1663.94 536.419 1656.36 530.879 1649.07L527.963 1645.14C475.77 1573.7 440.051 1488.85 424.16 1399.92C421.973 1387.23 420.515 1376.74 419.641 1366.53C408.56 1277.89 417.891 1187.06 447.924 1098.57C451.131 1088.65 455.068 1078.6 459.15 1068.1C466.877 1048.85 476.061 1028.74 486.413 1009.2C519.653 946.072 562.661 890.38 614.416 842.707C622.581 835.417 630.599 828.273 638.909 821.421C710.492 762.23 795.05 720.389 883.837 699.541L893.313 697.645C900.603 695.896 907.746 694.584 915.182 693.126C1004.84 677.089 1098 682.629 1184.31 708.871C1195.54 712.224 1205.89 715.578 1216.53 719.66C1238.25 727.387 1261.14 737.738 1284.91 750.13C1343.51 781.037 1395.27 820.838 1438.86 868.512C1446.15 876.384 1453.88 885.277 1460.87 893.879C1514.38 959.047 1554.18 1038.94 1575.32 1123.21C1579.11 1138.81 1582.17 1153.82 1584.94 1168.99C1604.48 1286.78 1589.02 1407.06 1540.48 1517.13L1536.69 1525.01C1531.44 1535.36 1526.77 1545.27 1521.38 1555.48ZM1491.78 1991.83C1572.55 1985.85 1654.34 1966.46 1735.25 1933.8L1741.23 1931.61C1744.87 1930.59 1748.23 1928.84 1751.43 1927.24C1790.51 1906.1 1802.32 1845.16 1778.55 1796.03C1774.32 1787.72 1769.22 1779.85 1764.12 1773.72C1759.45 1767.6 1756.39 1764.25 1753.62 1761.62L1664.54 1685.81L1770.53 1654.76C1841.68 1608.69 1906.41 1549.94 1962.83 1479.96L1968.22 1474.12C1969.54 1472.81 1970.99 1471.21 1973.18 1467.71L1978.72 1459.11C1997.38 1421.35 1978.28 1369.16 1934.84 1339.71L1930.76 1336.94C1923.9 1333 1917.2 1329.65 1910.78 1327.02C1905.1 1324.54 1900.29 1322.79 1895.48 1321.92L1816.02 1305.01L1863.98 1214.33C1902.18 1141.87 1929.74 1061.39 1945.77 975.23C1947.38 968.232 1948.4 963.567 1948.98 959.485V957.152C1952.48 911.957 1909.33 872.302 1853.2 868.657C1843.28 867.928 1835.12 868.22 1827.97 869.532C1817.33 871.136 1810.63 872.594 1803.92 875.218L1792.84 843.727L1791.38 844.019L1790.94 841.978L1719.51 839.937C1719.65 827.544 1720.09 815.007 1719.65 802.469L1709.88 786.432L1719.07 768.645C1714.26 681.463 1694.14 594.28 1659 509.868L1657.4 505.202C1656.38 501.849 1654.92 498.35 1653.32 494.997L1651.57 492.81C1628.24 451.406 1555.49 447.323 1493.09 483.771L1489.16 485.812C1482.16 489.894 1473.12 496.601 1464.23 504.473C1456.65 511.034 1450.52 517.303 1444.84 523.718L1389.87 587.574L1346.14 517.449C1337.24 503.744 1327.77 489.748 1317.85 476.044L1311.88 467.734C1261.43 400.525 1198.01 341.188 1123.08 291.328L1119 288.266C1116.08 285.788 1112.73 283.309 1108.94 281.414C1069.28 261.149 1015.05 286.225 987.931 337.252C982.682 347.166 979.475 354.747 977.58 361.453L974.373 371.95L967.375 469.338L881.796 428.517C806.859 396.734 720.989 376.907 630.453 371.367L624.184 370.638C620.102 369.909 616.603 369.617 613.687 369.763L609.168 369.909C572.283 371.804 532.336 422.248 532.92 478.085C532.92 487.999 534.086 496.601 535.835 504.327C537.439 511.617 538.897 517.303 541.084 522.405L566.451 588.303L484.226 609.734C403.02 619.356 317.587 644.869 233.758 685.691L227.635 688.169C224.719 689.19 221.657 690.939 218.45 692.834L212.618 696.479C179.378 721.847 173.255 780.892 199.206 825.503L203.288 832.356C207.224 838.333 211.015 843.436 214.659 847.372C218.887 851.6 224.427 856.994 230.113 861.805L266.123 894.316L213.347 994.474L193.082 983.832C134.475 1031.07 81.5529 1087.93 35.0458 1153.24L31.5469 1158.05C28.4853 1161.4 25.7153 1163.74 26.0068 1165.78C3.11777 1209.08 24.9863 1263.6 72.6597 1290.87C81.4071 1296.26 88.6967 1299.32 96.8609 1301.8C103.13 1303.84 108.233 1305.3 113.481 1305.88L200.664 1317.55L158.676 1397.15C121.499 1475 96.8609 1562.18 86.2182 1654.47L85.4893 1658.99C85.0519 1662.34 84.323 1665.4 84.1772 1668.75L84.3229 1672.69C83.8856 1717.45 128.352 1753.75 183.898 1754.77L186.522 1754.62C195.853 1754.62 204.6 1753.75 212.764 1751.85C219.179 1750.69 224.282 1749.38 229.093 1747.34L284.639 1725.32L319.045 1807.84L313.651 1818.63C320.357 1900.56 340.331 1982.06 372.988 2060.64L375.175 2066.91C375.903 2069.82 377.361 2072.88 379.257 2076.53C401.125 2116.48 459.441 2125.22 509.156 2097.23C517.903 2091.98 525.193 2086.88 531.17 2081.34C536.564 2076.82 540.792 2072.59 544.437 2068.37L598.525 2004.51L650.135 2084.11C695.767 2152.78 753.646 2214.01 822.459 2266.79L827.707 2271.6C829.749 2273.35 832.519 2275.53 835.143 2277.14L839.662 2280.05C876.839 2299.44 929.323 2278.45 959.356 2231.65L960.96 2229.03C965.771 2221.59 969.27 2213.72 972.186 2205.85C974.373 2199.87 976.414 2193.45 977.871 2186.89L995.949 2105.69L1067.68 2143.59C1143.49 2182.96 1227.61 2208.76 1318.44 2220.72L1326.16 2222.17C1328.93 2222.9 1331.7 2223.19 1335.2 2223.19C1377.77 2224.22 1416.85 2179.46 1422.39 2126.1L1422.68 2118.08C1423.26 2110.21 1422.82 2102.19 1421.51 2093.59C1420.49 2087.9 1418.89 2081.05 1417.14 2074.2L1375.73 1930.59L1491.78 1991.83ZM1889.21 1954.94C1923.76 1889.63 1923.9 1808.57 1888.62 1736.11C1887.02 1733.05 1885.42 1729.99 1883.81 1727.07C1946.36 1680.42 2003.94 1624.73 2055.7 1561.31C2061.24 1555.62 2066.63 1549.21 2071.59 1542.06L2078.15 1533.17C2139.97 1437.82 2108.77 1308.8 2011.23 1238.53L2002.78 1232.55C2000.3 1230.8 1997.67 1229.2 1995.05 1227.74C2028.29 1155.86 2052.35 1078.6 2066.78 1000.16C2069.4 990.101 2071.59 978.875 2072.9 967.066L2073.34 958.756C2078.44 847.664 1986.01 751.442 1863.26 743.132C1856.26 742.695 1848.97 742.403 1842.26 742.549C1835.41 647.348 1812.67 552.73 1774.91 460.882C1771.12 449.948 1766.45 439.451 1761.2 429.537L1758.72 425.892C1699.68 325.297 1557.68 302.845 1436.53 373.408L1432.74 375.449C1425.3 379.823 1418.01 384.488 1411.16 389.445C1352.99 312.03 1280.39 244.092 1195.24 187.234C1186.21 180.09 1177.31 174.258 1167.11 168.864C1067.97 118.129 939.091 167.844 879.026 280.831C877.276 284.038 875.818 287.392 874.069 290.599C801.174 265.96 723.905 251.236 644.158 246.133C632.932 244.675 622.143 244.092 614.416 244.383H609.751C539.189 247.737 475.187 291.036 438.885 359.995C419.349 397.026 409.435 439.305 409.581 484.063C409.581 487.707 409.727 491.352 410.018 495.143C334.645 510.013 259.271 535.527 185.647 571.245C178.066 574.161 170.485 577.952 163.05 582.18L154.74 586.845C125.582 605.214 101.235 631.602 84.7603 662.802C50.0622 728.699 51.2286 811.362 87.093 881.341L93.5077 893.442C95.403 896.358 97.1525 899.273 99.1936 902.189C38.8364 952.633 -15.2518 1011.97 -63.2168 1079.03C-70.9437 1088.51 -78.6706 1098.13 -82.7527 1108.05L-84.9396 1112.13C-138.007 1212.87 -96.6028 1339.85 9.67832 1401.08C13.3231 1403.12 16.6763 1405.02 20.321 1407.06C-7.81651 1480.39 -26.915 1558.68 -36.683 1640.47C-38.8698 1652.72 -39.8904 1663.21 -39.8904 1673.86V1678.52C-38.4325 1790.2 60.4133 1880.59 182.877 1880.73L187.834 1880.59C190.458 1880.59 192.791 1880.3 195.269 1880.3C206.204 1958 226.906 2034.4 257.668 2109.04C260.875 2119.25 265.249 2129.45 271.226 2140.24C325.314 2238.5 458.129 2268.54 569.221 2205.7C572.283 2203.95 575.345 2202.06 578.406 2200.16C624.913 2261.25 680.459 2316.94 743.586 2365.92C750.293 2372.05 757.728 2377.88 765.601 2382.83L771.141 2386.63C867.508 2444.94 996.387 2405.14 1064.76 2296.09L1066.66 2292.88C1068.41 2290.26 1070.01 2287.63 1071.47 2285.01C1141.45 2314.02 1217.11 2334.43 1296.86 2345.08C1307.5 2347.55 1318.73 2349.01 1331.7 2349.3C1407.08 2350.76 1478.22 2305.42 1517.44 2231.07C1534.35 2198.99 1544.41 2162.55 1546.75 2125.22L1546.89 2116.48C1546.89 2115.02 1546.89 2113.71 1547.04 2112.25C1623.29 2102.04 1699.97 2081.92 1775.49 2051.75C1784.97 2048.83 1794.88 2044.6 1807.56 2038.04C1842.26 2019.53 1870.25 1990.81 1889.21 1954.94Z" fill="white"/>
<path fill-rule="evenodd" clip-rule="evenodd" d="M884.149 378.954L884.738 379.233L887.538 380.632C914.077 394.36 992.733 445.188 1084.67 524.024C1131.9 564.291 1182.54 614.546 1231.95 675.473C1232.55 676.189 1233.01 676.909 1233.9 677.765C1286.16 742.423 1335.61 818.66 1377.46 908.183C1338.24 867.018 1291.42 831.992 1237.77 805.132C1216.99 794.782 1196.09 786.038 1174.94 778.758C1031.62 669.952 772.08 519.717 463.388 561.699C463.388 561.699 461.353 562.034 460.33 561.91C456.95 553.815 454.287 545.122 452.194 535.834C449.311 523.646 447.283 510.565 446.701 496.87L446.676 495.704C444.14 403.598 504.743 325.172 582.934 319.722L584.392 319.691C591.962 319.093 599.991 319.506 607.744 320.654C711.225 325.022 802.964 346.408 884.149 378.954Z" fill="#DD0B18"/>
<path fill-rule="evenodd" clip-rule="evenodd" d="M924.366 755.232C914.889 756.836 905.85 759.023 896.082 760.772C816.918 779.434 741.545 816.756 677.397 869.824C507.114 937.179 241.193 1081.51 105.316 1365.8L104.004 1368.28C94.9649 1367.11 86.2175 1364.93 78.199 1362.16C65.6611 1358.51 53.7063 1353.41 42.3346 1346.41L41.1683 1345.83C-36.6837 1300.93 -67.8828 1208.2 -28.6652 1137.79L-28.2278 1136.91C-24.4373 1129.77 -19.772 1123.06 -14.6694 1116.94C46.9999 1030.34 115.376 962.692 187.688 910.062L188.271 909.624H188.708L189 909.77L191.041 908.021C446.319 724.325 745.773 729.719 924.366 755.232Z" fill="white"/>
<path fill-rule="evenodd" clip-rule="evenodd" d="M1137.66 224.139L1138.53 224.576C1145.53 228.221 1151.95 233.032 1157.92 237.406C1243.94 294.993 1311.59 360.745 1363.78 431.307L1364.07 431.599C1364.51 432.765 1365.24 433.494 1365.97 434.369C1377.34 450.26 1388.42 466.005 1398.19 482.042C1552.14 725.512 1546.16 1010.24 1523.13 1180.23C1520.94 1166.38 1518.02 1152.97 1514.67 1139.26C1496.01 1064.33 1460.88 993.474 1411.74 933.263C1405.62 925.682 1399.06 918.392 1392.5 911.103C1352.55 820.713 1304.59 743.298 1253.85 677.693C1253.12 676.964 1252.54 675.943 1251.96 675.214C1203.99 613.399 1154.13 562.227 1107.77 520.822C1017.53 440.054 940.112 387.716 913.724 373.283L911.1 371.825C911.975 360.016 913.87 357.1 917.515 345.145C921.014 332.461 926.117 320.361 932.531 308.114L932.969 307.24C976.852 225.305 1067.82 188.566 1137.66 224.139Z" fill="#FEC906"/>
<path fill-rule="evenodd" clip-rule="evenodd" d="M1188.19 818.361C1178.92 814.686 1170.09 811.602 1160.81 808.511C1082.12 782.962 999.692 777.32 920.126 790.104C742.345 760.931 442.899 750.016 184.042 928.993C183.297 929.854 182.271 930.126 182.271 930.126L181.828 930.409C175.382 924.309 168.644 918.203 162.5 911.525C154.363 902.33 146.698 891.249 139.922 879.455L139.796 878.432C96.5289 800.569 114.638 682.56 206.232 650.174C301.996 605.908 394.027 581.694 481.673 573.437L482.405 573.305L482.845 573.168L484.745 572.912C796.039 543.368 1049.35 703.893 1188.19 818.361Z" fill="#EF7B21"/>
<path fill-rule="evenodd" clip-rule="evenodd" d="M1195.26 848.029C1195.26 848.029 1001.65 800.502 898.143 780.237C794.632 759.972 948.732 756.619 948.732 756.619L1053.41 754.432L1172.37 798.606C1172.37 798.606 1255.18 842.635 1267.58 872.085C1279.97 901.534 1195.26 848.029 1195.26 848.029Z" fill="#EF7B21"/>
</g>
<defs>
<clipPath id="clip0_677_15788">
<rect width="1315" height="756" fill="white"/>
</clipPath>
</defs>
</svg>
