<svg width="38" height="38" viewBox="0 0 38 38" fill="none" xmlns="http://www.w3.org/2000/svg">
<path fill-rule="evenodd" clip-rule="evenodd" d="M18.7996 0C8.39983 0 0 8.37695 0 18.7484C0 29.1199 8.39983 37.4968 18.7996 37.4968C29.1994 37.4968 37.5992 29.1199 37.5992 18.7484C37.5992 8.37695 29.1994 0 18.7996 0ZM23.5995 11.9671H21.1996C19.5996 11.9671 19.1996 12.7649 19.1996 13.9616V16.7539H23.5995L22.7995 21.1418H19.1996V31.9122H14.7997V21.1418H11.1998V16.7539H14.7997V13.5627C14.7997 9.97256 16.7997 7.97805 20.3996 7.97805C21.9996 7.97805 23.1995 7.97805 23.5995 7.97805V11.9671Z" fill="white"/>
</svg>
