<svg width="37" height="38" viewBox="0 0 37 38" fill="none" xmlns="http://www.w3.org/2000/svg">
<path d="M25.4002 13.6874C26.0629 13.6874 26.6002 13.1516 26.6002 12.4907C26.6002 11.8298 26.0629 11.294 25.4002 11.294C24.7374 11.294 24.2002 11.8298 24.2002 12.4907C24.2002 13.1516 24.7374 13.6874 25.4002 13.6874Z" fill="white"/>
<path d="M18.6003 0.523621C8.60052 0.523621 0.200684 8.50166 0.200684 18.8731C0.200684 28.8457 8.20053 37.2226 18.6003 37.2226C28.6001 37.2226 36.9999 29.2446 36.9999 18.8731C36.9999 8.50166 28.6001 0.523621 18.6003 0.523621ZM29.4001 24.0589C29.4001 26.8512 27.0001 29.2446 24.2002 29.2446H13.8004C11.0005 29.2446 8.60052 26.8512 8.60052 24.0589V13.6874C8.60052 10.8951 11.0005 8.50166 13.8004 8.50166H24.2002C27.0001 8.50166 29.4001 10.8951 29.4001 13.6874V24.0589Z" fill="white"/>
<path d="M18.6004 13.6396C15.263 13.6396 12.7505 16.1443 12.7505 19.4742C12.7505 22.8041 15.263 25.3088 18.6004 25.3088C21.9377 25.3088 24.4503 22.8041 24.4503 19.4742C24.4503 16.1443 21.9377 13.6396 18.6004 13.6396ZM18.6004 23.6121C16.3379 23.6121 14.4505 21.7289 14.4505 19.4742C14.4505 17.2195 16.3379 15.3363 18.6004 15.3363C20.8629 15.3363 22.7503 17.2195 22.7503 19.4742C22.7503 20.6157 22.3691 21.6488 21.6682 22.3945C20.9695 23.1377 19.9376 23.6121 18.6004 23.6121Z" fill="white" stroke="white" stroke-width="0.5"/>
</svg>
