<svg width="219" height="63" viewBox="0 0 219 63" fill="none" xmlns="http://www.w3.org/2000/svg">
<path fill-rule="evenodd" clip-rule="evenodd" d="M104.52 27.9846V42.3072C104.52 43.9999 103.404 46.5606 100.486 46.5606C99.3271 46.5606 98.2972 46.17 97.5248 45.4321C97.4819 45.3887 97.4819 45.3887 97.439 45.3453C97.2673 45.2151 97.1386 45.0415 97.0527 44.8679L98.8122 43.1318C99.1126 43.6527 99.6275 44.1301 100.486 44.1301C101.945 44.1301 102.031 42.611 102.031 42.3072V38.4444C102.031 33.8005 102.074 27.9846 102.074 27.9846H104.52Z" fill="#DE0B14"/>
<path fill-rule="evenodd" clip-rule="evenodd" d="M76.3686 26.4656C77.1839 25.2938 78.3426 24.5993 79.8875 24.3389C80.145 24.2955 80.3595 24.2955 80.617 24.2521C80.8316 24.2521 81.0462 24.2087 81.2607 24.2087C82.2048 24.2087 83.106 24.3823 83.9213 24.6861C84.7796 25.0333 85.595 25.5108 86.3674 26.1184L86.4962 23.3841C85.6379 22.8633 84.7796 22.4292 83.9213 22.1254C83.0631 21.8216 82.1619 21.6914 81.1749 21.6914H80.7458C80.5741 21.6914 80.4454 21.6914 80.2737 21.7348C80.2308 21.7348 80.1879 21.7348 80.145 21.7348C80.1021 21.7348 80.0591 21.7348 79.9733 21.7348C77.6989 21.9518 75.8107 22.9067 74.3517 24.5993C72.8926 26.2486 72.1631 28.2017 72.1631 30.4152V30.6322C72.1631 30.719 72.1631 30.7624 72.206 30.8058V31.2398C72.4206 33.7137 73.4505 35.6234 75.2099 37.0122C76.9694 38.4011 78.9434 39.0955 81.0891 39.0955C81.3465 39.0955 81.6469 39.0955 81.9473 39.0521C82.2477 39.0087 82.5481 39.0087 82.8056 38.9653C83.4064 38.8785 84.0072 38.7049 84.6509 38.4879C85.2517 38.2709 85.8095 37.9671 86.3674 37.6199V34.5383C85.595 35.146 84.7367 35.6668 83.8355 36.0574C82.9343 36.4914 81.9902 36.665 81.0462 36.665C80.9174 36.665 80.7458 36.665 80.617 36.6216C80.4883 36.6216 80.3166 36.5782 80.1879 36.5782C80.0162 36.5348 79.8875 36.4914 79.7158 36.4914C79.5871 36.448 79.4154 36.448 79.2867 36.4046C77.9564 36.014 76.9265 35.2762 76.2399 34.1911C75.5103 33.1061 75.1241 31.9776 75.0383 30.7624V30.1547C75.0812 28.8527 75.5103 27.594 76.3686 26.4656Z" fill="#DE0B14"/>
<path fill-rule="evenodd" clip-rule="evenodd" d="M96.4949 35.9271C95.8941 36.5347 95.2504 36.8819 94.5209 36.9687C94.478 36.9687 94.4351 37.0121 94.3922 37.0121H94.1776C93.491 37.0121 92.8473 36.7083 92.2465 36.1007C91.6457 35.5365 91.3882 34.6684 91.3882 33.54C91.3882 33.4966 91.3882 33.4098 91.3882 33.3664C91.3882 33.323 91.4311 33.2362 91.4311 33.1494V33.106C91.4311 33.0192 91.4741 32.9324 91.4741 32.889C91.4741 32.8022 91.4741 32.7587 91.4741 32.6719C91.5599 31.8039 91.8603 31.1529 92.3752 30.5887C92.8902 30.0678 93.5339 29.764 94.3922 29.764H94.9071C95.8083 29.8942 96.452 30.2848 96.8382 30.9793C97.2244 31.6737 97.439 32.4115 97.439 33.2362C97.3961 34.408 97.0957 35.3195 96.4949 35.9271ZM97.2674 27.9846V29.7206C96.9241 29.0262 96.452 28.5054 95.7654 28.1148C95.0788 27.7675 94.3922 27.5505 93.6626 27.5505C93.5339 27.5505 93.4481 27.5505 93.3622 27.5505C93.2764 27.5505 93.1477 27.5505 93.0618 27.5939C91.989 27.7241 91.002 28.2884 90.1008 29.2432C89.1996 30.198 88.7705 31.5869 88.7705 33.3664V33.6268C88.7705 33.6268 88.7705 33.6702 88.8134 33.6702V33.974C88.8992 35.3629 89.3284 36.5347 90.1437 37.5763C90.9591 38.618 92.1177 39.1388 93.5768 39.1822L93.7055 39.1388C94.478 39.1388 95.1646 39.0086 95.7654 38.7048C96.3662 38.401 96.8811 37.967 97.3103 37.3593V38.7482H99.8422V27.9846H97.2674Z" fill="#DE0B14"/>
<path fill-rule="evenodd" clip-rule="evenodd" d="M104.305 22.4291C104.048 22.1253 103.704 21.9951 103.275 21.9951C102.846 21.9951 102.46 22.1253 102.203 22.4291C101.945 22.7329 101.773 23.0368 101.73 23.384V23.5142C101.73 23.9048 101.859 24.2086 102.117 24.5124C102.374 24.8162 102.76 24.9898 103.232 24.9898C103.704 24.9898 104.048 24.8596 104.305 24.5124C104.563 24.2086 104.649 23.8614 104.649 23.5142V23.384C104.691 23.0368 104.563 22.6895 104.305 22.4291Z" fill="#DE0B14"/>
<path fill-rule="evenodd" clip-rule="evenodd" d="M114.347 35.9271C113.746 36.5347 113.103 36.8819 112.416 36.9687C112.373 36.9687 112.33 37.0121 112.287 37.0121H112.03C111.343 37.0121 110.699 36.7083 110.099 36.1007C109.498 35.5365 109.24 34.6684 109.24 33.54C109.24 33.4966 109.24 33.4098 109.24 33.3664C109.24 33.323 109.24 33.2362 109.283 33.1494V33.106C109.326 33.0192 109.326 32.9324 109.326 32.889C109.326 32.8022 109.326 32.7587 109.326 32.6719C109.412 31.8039 109.712 31.1529 110.227 30.5887C110.742 30.0678 111.386 29.764 112.244 29.764H112.759C113.66 29.8942 114.304 30.2848 114.69 30.9793C115.077 31.6737 115.291 32.4115 115.291 33.2362C115.248 34.408 114.948 35.3195 114.347 35.9271ZM115.162 27.9846V29.7206C114.819 29.0262 114.347 28.5054 113.66 28.1148C112.974 27.7675 112.287 27.5505 111.558 27.5505C111.429 27.5505 111.343 27.5505 111.257 27.5505C111.171 27.5505 111.043 27.5505 110.957 27.5939C109.884 27.7241 108.897 28.2884 107.996 29.2432C107.095 30.198 106.666 31.5869 106.666 33.3664V33.6268C106.666 33.6268 106.666 33.6702 106.708 33.6702V33.974C106.794 35.3629 107.223 36.5347 108.039 37.5763C108.854 38.618 110.013 39.1388 111.472 39.1822L111.601 39.1388C112.373 39.1388 113.06 39.0086 113.66 38.7048C114.261 38.401 114.776 37.967 115.205 37.3593V38.7482H117.737V27.9846H115.162Z" fill="#DE0B14"/>
<path fill-rule="evenodd" clip-rule="evenodd" d="M132.843 28.3317C131.941 27.5071 130.783 26.8995 129.367 26.5089L127.95 26.1183C127.435 25.988 126.92 25.771 126.363 25.4672C125.762 25.1634 125.461 24.7728 125.461 24.2086C125.461 23.6443 125.762 23.2103 126.277 22.9499C126.749 22.6895 127.264 22.5593 127.779 22.5593C129.152 22.5593 130.311 23.0367 131.383 23.8614L133.443 19.7816C131.469 18.6965 129.367 18.1323 127.135 18.1323C125.075 18.1323 123.444 18.7399 122.157 19.9552C120.87 21.127 120.183 22.7763 120.183 24.8596C120.183 25.8144 120.312 26.5957 120.612 27.2467C120.827 27.8977 121.213 28.4185 121.685 28.8092C122.157 29.1998 122.715 29.547 123.402 29.8074C124.045 30.0678 124.775 30.3282 125.547 30.5886C126.191 30.7188 126.92 30.9792 127.736 31.2831C128.079 31.4567 128.38 31.6303 128.637 31.9341C128.852 32.1945 128.98 32.4983 128.98 32.8889C128.98 33.5834 128.68 34.1042 128.165 34.408C127.65 34.7552 127.049 34.9288 126.406 34.9288C125.504 34.9288 124.689 34.7118 123.874 34.2778C123.101 33.8872 122.372 33.4097 121.685 32.8455L119.411 37.0989C121.513 38.618 123.874 39.3558 126.491 39.3992C128.637 39.3992 130.525 38.7916 132.199 37.4895C133.014 36.7951 133.572 35.9705 133.872 35.0156C134.173 34.0608 134.302 33.1059 134.302 32.1077C134.216 30.415 133.744 29.1564 132.843 28.3317Z" fill="#DE0B14"/>
<path fill-rule="evenodd" clip-rule="evenodd" d="M145.588 24.9031V32.3248C145.588 32.7588 145.545 33.1494 145.502 33.4966C145.416 33.8438 145.287 34.1911 145.116 34.4515C144.772 35.0157 144.086 35.3195 143.056 35.3195C142.026 35.3195 141.339 35.0157 140.996 34.4515C140.653 33.9306 140.481 33.1928 140.481 32.3248V24.9031H135.718V33.2362C135.718 35.4497 136.447 37.0122 137.821 37.8802C139.194 38.7482 140.91 39.1823 143.013 39.1823C145.116 39.1823 146.875 38.7916 148.248 37.8802C149.622 37.0122 150.308 35.4497 150.351 33.2362V24.9031H145.588Z" fill="#DE0B14"/>
<path d="M158.075 16.3962H153.312V38.7482H158.075V16.3962Z" fill="#DE0B14"/>
<path d="M165.586 16.3962H160.822V38.7482H165.586V16.3962Z" fill="#DE0B14"/>
<path fill-rule="evenodd" clip-rule="evenodd" d="M177.601 34.0173C177.043 34.625 176.271 34.9288 175.327 34.9288C174.34 34.9288 173.61 34.625 173.052 34.0173C172.494 33.4531 172.237 32.7153 172.237 31.8472C172.237 30.9792 172.494 30.2414 173.052 29.6337C173.567 29.0261 174.34 28.7223 175.327 28.7223C176.314 28.7223 177.086 29.0261 177.601 29.6337C178.116 30.198 178.373 30.9358 178.373 31.8472C178.373 32.7153 178.116 33.4531 177.601 34.0173ZM178.245 24.903V26.2484C177.73 25.6408 177.129 25.1634 176.399 24.8596C175.67 24.5557 174.897 24.4255 174.082 24.4255C172.065 24.4689 170.434 25.2068 169.233 26.5956C167.988 27.9845 167.345 29.7206 167.345 31.7604C167.345 33.8003 167.988 35.493 169.276 36.9252C170.52 38.4009 172.151 39.1387 174.125 39.1821C174.94 39.1821 175.713 39.0085 176.485 38.6613C177.215 38.3575 177.773 37.8367 178.202 37.1857H178.245V38.7481H183.008V24.903H178.245Z" fill="#DE0B14"/>
<path fill-rule="evenodd" clip-rule="evenodd" d="M199.401 26.0316C198.543 25.0333 197.213 24.5125 195.367 24.4691C193.479 24.4257 192.02 25.1635 190.947 26.6826H190.904V24.9031H186.141V38.7483H190.904V31.587C190.904 30.6755 191.076 29.9377 191.505 29.3301C191.892 28.7225 192.578 28.4187 193.565 28.3753C194.209 28.3753 194.681 28.5055 195.024 28.7225C195.367 28.9829 195.582 29.2867 195.668 29.6773C195.797 30.0679 195.882 30.4585 195.882 30.8492C195.882 31.2398 195.84 31.6304 195.84 32.021V38.7483H200.603V30.1981C200.56 28.4621 200.174 27.0732 199.401 26.0316Z" fill="#DE0B14"/>
<path fill-rule="evenodd" clip-rule="evenodd" d="M212.619 34.0173C212.061 34.625 211.288 34.9288 210.344 34.9288C209.357 34.9288 208.628 34.625 208.07 34.0173C207.512 33.4531 207.254 32.7153 207.254 31.8472C207.254 30.9792 207.512 30.2414 208.07 29.6337C208.585 29.0261 209.357 28.7223 210.344 28.7223C211.331 28.7223 212.061 29.0261 212.619 29.6337C213.134 30.198 213.391 30.9358 213.391 31.8472C213.434 32.7153 213.176 33.4531 212.619 34.0173ZM213.262 24.903V26.2484C212.747 25.6408 212.147 25.1634 211.417 24.8596C210.688 24.5557 209.915 24.4255 209.1 24.4255C207.083 24.4689 205.452 25.2068 204.25 26.5956C203.006 27.9845 202.362 29.7206 202.362 31.7604C202.362 33.8003 203.006 35.493 204.293 36.9252C205.538 38.4009 207.169 39.1387 209.143 39.1821C209.958 39.1821 210.73 39.0085 211.503 38.6613C212.232 38.3575 212.79 37.8367 213.219 37.1857H213.262V38.7481H218.026V24.903H213.262Z" fill="#DE0B14"/>
<path fill-rule="evenodd" clip-rule="evenodd" d="M45.428 31.4565C45.428 39.0952 39.1198 45.3017 31.3524 45.3017C23.5851 45.3017 17.2769 39.0952 17.2769 31.4565C17.2769 23.8178 23.5851 17.6113 31.3524 17.6113C39.1198 17.6113 45.428 23.8178 45.428 31.4565Z" fill="white"/>
<path fill-rule="evenodd" clip-rule="evenodd" d="M31.4381 47.9928C29.8503 47.9928 28.2625 47.7758 26.7176 47.2984C25.9451 47.0814 25.1298 46.7776 24.3573 46.387C24.0999 46.2567 23.7995 46.1265 23.542 45.9963C21.3105 44.8245 19.3365 43.0884 17.8774 41.0919C17.7058 40.8749 17.5341 40.6145 17.4054 40.3975C16.0321 38.2274 15.1739 35.9271 14.8735 33.4098C14.8306 33.106 14.7877 32.8022 14.7877 32.4984C14.7877 32.238 14.7447 31.8908 14.7447 31.5436C14.7447 29.3735 15.1739 27.2902 15.9892 25.2937C16.0751 25.0767 16.2038 24.8163 16.2896 24.5993L16.3325 24.4691C17.4054 22.2556 19.0361 20.2157 21.0101 18.6532C21.3105 18.4362 21.5251 18.2626 21.7825 18.089C23.8424 16.7001 26.2026 15.7453 28.7774 15.3113C29.0778 15.2679 29.3782 15.2245 29.6786 15.1811C30.2365 15.1377 30.8802 15.0943 31.481 15.0943C33.455 15.0943 35.3861 15.4415 37.2314 16.0925C37.5318 16.1793 37.7892 16.3095 38.0896 16.4397C40.4499 17.438 42.5955 19.0004 44.2692 20.9101L44.4408 21.1271C44.5695 21.3007 44.6983 21.4309 44.827 21.6045C46.3719 23.6444 47.4447 26.0315 47.9168 28.5054C47.9597 28.8092 48.0455 29.1131 48.0884 29.4603C48.1743 30.1113 48.2172 30.8057 48.2172 31.5436C48.2172 33.4098 47.9168 35.2327 47.316 36.9254C47.2302 37.2292 47.1014 37.533 46.9727 37.7934C46.0715 39.9635 44.6125 42.0034 42.8101 43.6526C42.4668 43.9565 42.1664 44.2169 41.8231 44.4773C39.1625 46.5172 36.0298 47.689 32.6825 47.9494H32.4251C32.0818 47.9928 31.7814 47.9928 31.4381 47.9928ZM20.3235 52.984C21.5251 54.8937 23.0699 56.6732 24.9152 58.279L25.044 58.4092C25.1298 58.4961 25.2156 58.5394 25.3014 58.5829C26.3314 59.2773 27.9621 58.7565 28.8632 57.5412C29.0349 57.3242 29.1207 57.1072 29.2066 56.8902C29.2924 56.6732 29.3353 56.5864 29.3782 56.4562L30.1077 53.2444L32.2534 55.4579C34.3132 56.6298 36.5877 57.4544 39.0337 57.9318L39.2483 57.9752C39.2912 57.9752 39.3341 58.0186 39.4629 58.0186L39.7632 58.062C40.9219 58.0186 41.9518 56.8902 42.1235 55.4145V55.2843C42.1235 55.0673 42.1235 54.8503 42.1235 54.6767C42.1235 54.5031 42.0806 54.3729 42.0377 54.2427L41.4369 52.0292H44.2692C46.5436 52.0292 48.8609 51.6386 51.2211 50.9441C51.3928 50.9007 51.5215 50.8573 51.6503 50.8139L51.6932 50.7705C52.8518 50.2497 53.281 48.6872 52.6373 47.2116C52.5085 46.9512 52.4227 46.7342 52.294 46.604C52.1223 46.3436 51.9936 46.2133 51.8219 46.0831L52.4656 45.3887L52.4227 45.3453L52.4656 45.3019L51.6073 43.479C51.9077 43.3054 52.2081 43.1752 52.5085 43.0016L52.766 42.5676H53.3239C55.4266 41.3089 57.2719 39.6597 58.9026 37.6632L58.9884 37.5764C59.0743 37.4896 59.1172 37.4462 59.203 37.3594L59.2459 37.2726C59.9755 36.1441 59.1172 34.2779 57.4006 33.2362L57.3148 33.1494C57.1432 33.0192 56.8428 32.889 56.5424 32.7588C56.2849 32.672 56.0703 32.5852 55.8129 32.5418L53.5384 32.021L54.6971 30.0245C54.9117 29.6339 55.1262 29.1999 55.3408 28.7658L55.4695 28.5054C56.4566 26.3787 57.1003 24.035 57.3577 21.5177L57.4006 21.3875C57.4006 21.3007 57.4436 21.1705 57.4436 21.0403C57.4436 19.7817 56.1132 18.7834 54.4825 18.7834C54.1821 18.7834 53.9247 18.7834 53.753 18.8268L53.4526 18.8702L50.9636 19.9553L50.8778 17.3078C50.7062 15.0075 50.0625 12.6204 49.0325 10.3201L48.9896 10.1465C48.9467 10.0163 48.9038 9.92947 48.8609 9.88607L48.818 9.75586C48.303 8.84443 46.5436 8.54061 45.1703 9.27844C44.9129 9.40865 44.7412 9.53885 44.5695 9.71246C44.3979 9.84267 44.3121 9.97287 44.1833 10.0597L42.8959 11.5353L41.2223 9.79926C39.9349 7.88959 38.2184 6.11011 36.1156 4.59105L35.9869 4.46085C35.944 4.41744 35.8581 4.33064 35.7723 4.28724L35.6007 4.20044C34.5278 3.72302 33.0258 4.33064 32.2534 5.54589L32.1247 5.7629C32.0388 5.93651 31.953 6.11011 31.9101 6.24032C31.8672 6.41393 31.7814 6.63094 31.7384 6.80454L31.3951 8.1066H28.2625V7.49897C26.3314 6.67434 24.2715 6.11011 22.04 5.8063L21.9113 5.7629C21.7825 5.7195 21.6967 5.6761 21.6538 5.7195C20.2806 5.7195 19.2507 6.97815 19.1648 8.49721C19.1648 8.80102 19.1648 9.01803 19.2077 9.23504C19.2507 9.40865 19.2507 9.58226 19.3365 9.71246L20.1947 12.0128H17.7058C15.3026 12.0996 12.8566 12.6204 10.4534 13.5752L10.3247 13.6186C10.2388 13.662 10.153 13.662 10.0672 13.7054L9.98136 13.7488C8.86561 14.313 8.56522 15.9189 9.25183 17.3078L9.29475 17.3512C9.42349 17.5682 9.55223 17.7852 9.72388 17.9588C9.85262 18.089 9.93845 18.2192 10.0672 18.306L11.3117 19.3911L9.72388 21.3441H9.38057C7.44947 22.6028 5.69002 24.1652 4.18806 25.9881L4.05932 26.1183C4.0164 26.1617 3.93058 26.2485 3.88766 26.3353C3.20105 27.4204 3.71601 28.9828 5.04632 29.8509C5.3038 29.9811 5.51837 30.1113 5.73294 30.1981C5.90459 30.2849 6.07624 30.3283 6.20498 30.3717L8.47939 30.8925L7.19199 33.2362C6.07624 35.2761 5.34672 37.533 4.91758 39.9201L4.87467 40.0937C4.87467 40.1805 4.83176 40.2673 4.83176 40.3541V40.4843C4.83176 41.6562 6.03333 42.6978 7.57821 42.828H7.66404C7.92152 42.8714 8.13609 42.828 8.39357 42.7846C8.56522 42.7412 8.73687 42.7412 8.95144 42.6978L11.1829 42.0902V44.3905C11.1829 46.7776 11.655 49.2081 12.5562 51.6386L12.5991 51.8556C12.5991 51.9424 12.642 51.9858 12.6849 52.0726C13.1999 53.1576 14.8306 53.5482 16.2038 52.984L16.4184 52.8972C16.6329 52.8104 16.8046 52.6802 17.0192 52.55C17.1479 52.4632 17.2766 52.333 17.4483 52.2028L20.4522 49.2949V52.984H20.3235ZM26.4172 62.3588C28.477 62.3588 30.451 61.3172 31.7814 59.4943C31.8243 59.4075 31.9101 59.3207 31.953 59.2773C33.927 60.2321 36.0298 60.9266 38.2613 61.3606C38.4758 61.404 38.6904 61.4908 38.9479 61.4908L39.2483 61.5342C42.381 61.838 45.1703 59.3641 45.6424 56.0221L45.6853 55.7183C45.6853 55.6315 45.6853 55.5447 45.6853 55.4579C47.8739 55.3277 50.1054 54.9371 52.2081 54.2427C52.5085 54.1559 52.8089 54.0691 53.1093 53.9389L53.3239 53.8521C56.1132 52.5066 57.2719 48.9477 55.8987 45.8227C55.8129 45.6491 55.727 45.4755 55.6412 45.3019C57.8727 43.8697 59.9325 42.0902 61.692 39.9201C61.9066 39.7031 62.1211 39.4427 62.2928 39.1823L62.3357 39.0521C64.0522 36.2743 62.7648 32.455 59.4605 30.3717L59.3747 30.2849C59.1601 30.1547 58.9455 30.0245 58.731 29.9377C59.8896 27.4638 60.6191 24.7729 60.9195 21.9084C60.9625 21.6045 61.0054 21.3007 61.0054 20.9535C60.9625 17.8286 58.0873 15.2679 54.5255 15.2679C54.4396 15.2679 54.3109 15.2679 54.2251 15.2679C53.8818 13.1412 53.2381 11.0145 52.3369 8.97463C52.2081 8.67082 52.1223 8.41041 51.9936 8.1934L51.9506 8.06319C50.9636 6.37052 49.0755 5.32888 46.8869 5.32888C45.7282 5.32888 44.5695 5.63269 43.4538 6.24032C43.368 6.28372 43.2821 6.32712 43.1963 6.41393C41.7373 4.76466 40.1495 3.2456 38.3042 1.85674C38.1325 1.72654 37.9609 1.55293 37.7463 1.42272L37.5318 1.29252C36.7164 0.815098 35.7294 0.554688 34.7424 0.554688C32.6825 0.554688 30.6656 1.68313 29.4211 3.46261L29.2066 3.80982C29.1636 3.89662 29.1207 3.98343 29.0778 4.07023C27.0609 3.2456 24.9152 2.68137 22.6408 2.37756C22.2975 2.29076 21.9542 2.24736 21.6967 2.29076H21.568C18.3924 2.29076 15.8176 4.98167 15.6888 8.45381C15.6888 8.58401 15.6888 8.67082 15.6888 8.80102C13.5003 9.06143 11.3546 9.62566 9.20892 10.4503C8.86561 10.5371 8.60813 10.6673 8.35065 10.7975H8.179C5.43254 12.3166 4.53136 15.9189 6.07624 19.0004L6.16207 19.1306C6.20498 19.174 6.2479 19.2609 6.2479 19.3043C4.48845 20.6063 2.85774 22.1254 1.4416 23.8614C1.22703 24.0784 1.05538 24.3389 0.840812 24.5993C-0.875723 27.2468 0.111284 30.9359 3.11522 32.8456C3.20105 32.889 3.28687 32.9324 3.3727 33.0192C2.47152 34.9723 1.82782 37.099 1.4416 39.3125C1.39869 39.5295 1.35577 39.7899 1.31286 40.0503V40.2239C1.14121 43.3922 3.75892 46.0831 7.36365 46.3436H7.44947C7.5353 46.3436 7.62113 46.3436 7.70695 46.3436C7.87861 48.4702 8.39357 50.5969 9.16601 52.7236C9.25183 53.0274 9.33766 53.3312 9.50932 53.6351C10.4534 55.5447 12.4703 56.7166 14.8306 56.7166C15.8176 56.7166 16.8475 56.4996 17.7916 56.0656L18.0062 55.9353C18.0491 55.9353 18.092 55.8919 18.092 55.8919C19.3365 57.6714 20.8384 59.2773 22.555 60.7963C22.7695 61.0134 22.9841 61.187 23.3274 61.404C24.1857 62.055 25.2585 62.3588 26.4172 62.3588Z" fill="white"/>
<path fill-rule="evenodd" clip-rule="evenodd" d="M52.5942 17.3076V17.3945C52.5942 18.2191 52.2938 20.8666 51.4785 24.1651C51.0493 25.8578 50.4485 27.7675 49.5473 29.764C49.5473 29.8074 49.5044 29.8074 49.5044 29.8508C48.5603 31.9774 47.2729 34.1909 45.5564 36.361C46.0714 34.842 46.3718 33.2361 46.3718 31.5434C46.3718 30.8924 46.3288 30.2414 46.243 29.6337C47.1442 24.6425 47.6592 16.266 42.767 9.01791C42.767 9.01791 42.7241 8.97451 42.7241 8.93111C42.8958 8.7575 43.0674 8.58389 43.282 8.41028C43.5395 8.19328 43.8399 7.97627 44.1832 7.80266H44.2261C46.5005 6.58741 49.204 7.10823 50.2769 9.01791V9.06131C50.4056 9.23492 50.4914 9.45193 50.5344 9.66894C51.7788 12.273 52.4225 14.8337 52.5942 17.3076Z" fill="#DE0B14"/>
<path fill-rule="evenodd" clip-rule="evenodd" d="M46.2862 29.6339C46.2433 29.3734 46.2004 29.113 46.1575 28.8092C45.7283 26.5089 44.7413 24.4256 43.3681 22.6462C41.6945 17.872 37.9181 10.3635 30.1079 6.41391C30.0649 6.41391 30.0649 6.3705 30.0649 6.3705C30.1079 6.11009 30.1937 5.89308 30.2795 5.63267C30.4082 5.32886 30.5799 4.98165 30.7516 4.63443H30.7945C32.1248 2.46434 34.7425 1.63971 36.6736 2.76816V2.81156C36.8882 2.94176 37.0598 3.07197 37.2315 3.20218C39.5917 4.93825 41.437 6.89132 42.8102 8.93121L42.8531 8.97461C47.7023 16.2661 47.1874 24.686 46.2862 29.6339Z" fill="#EF7C1F"/>
<path fill-rule="evenodd" clip-rule="evenodd" d="M43.3678 22.6461C43.1962 22.4291 43.0245 22.2555 42.8529 22.0385C41.3509 20.3024 39.4627 18.9136 37.317 18.0455C33.4548 14.7036 26.4599 9.9728 17.7056 10.32H17.6198C17.534 10.103 17.491 9.8426 17.4481 9.58219C17.3623 9.23497 17.3623 8.84436 17.3623 8.49714V8.45374C17.4481 5.93644 19.3363 3.93996 21.5678 3.98336H21.6107C21.8253 3.98336 22.0399 4.02676 22.2973 4.07016C25.2155 4.46078 27.7903 5.28541 30.0218 6.37046L30.1076 6.41386C37.9178 10.3634 41.6942 17.8719 43.3678 22.6461Z" fill="#DE0B14"/>
<path fill-rule="evenodd" clip-rule="evenodd" d="M37.3599 18.002C37.1024 17.9152 36.8449 17.785 36.5875 17.6982C34.9997 17.134 33.2402 16.7868 31.4378 16.7868C30.88 16.7868 30.365 16.8302 29.85 16.8736C24.8292 15.8319 16.3752 15.0941 8.90832 19.6079C8.86541 19.6079 8.86541 19.6079 8.82249 19.6513C8.65084 19.4777 8.47919 19.3041 8.30753 19.0871C8.09297 18.8267 7.8784 18.4794 7.70675 18.1756V18.1322C6.54809 15.8753 7.19179 13.2278 9.1658 12.2296H9.20871C9.42328 12.1428 9.59493 12.056 9.8095 11.9692C12.556 10.8841 15.1737 10.3633 17.6627 10.2765H17.7485C26.5028 9.97269 33.4977 14.6601 37.3599 18.002Z" fill="#FFCB00"/>
<path fill-rule="evenodd" clip-rule="evenodd" d="M29.8501 16.917C29.5497 16.9604 29.2922 17.0038 29.0347 17.0472C26.7174 17.4378 24.5717 18.3059 22.7694 19.6079C17.8343 21.0836 10.067 24.5123 5.81859 32.1076C5.81859 32.151 5.77567 32.1511 5.77567 32.1511C5.51819 32.1076 5.26071 32.0208 5.04615 31.934C4.70284 31.8038 4.35953 31.6302 4.05914 31.4566H4.01623C1.87056 30.0678 1.09812 27.4637 2.29969 25.5974V25.554C2.42843 25.3804 2.55717 25.2068 2.72882 25.0332C4.5741 22.7763 6.63394 21.0402 8.7367 19.7381C8.77961 19.7381 8.77961 19.6947 8.82253 19.6947C16.3753 15.1376 24.8292 15.8754 29.8501 16.917Z" fill="#DE0B14"/>
<path fill-rule="evenodd" clip-rule="evenodd" d="M22.7695 19.5647C22.5549 19.6949 22.3404 19.8685 22.1258 20.0421C20.3663 21.431 18.9073 23.2104 17.9203 25.2503C14.4014 28.8961 9.25178 35.6668 9.3376 44.3905V44.4773C9.08012 44.5641 8.82264 44.6075 8.56516 44.6509C8.22186 44.6943 7.83564 44.7377 7.44942 44.6943H7.4065C4.8317 44.5207 2.85768 42.611 2.98642 40.3975V40.3541C2.98642 40.1371 3.02934 39.9201 3.11516 39.7031C3.58721 36.8386 4.53131 34.3647 5.73288 32.1946V32.1512L5.77579 32.1078C10.11 24.5125 17.8774 21.0404 22.7695 19.5647Z" fill="#EF7C1F"/>
<path fill-rule="evenodd" clip-rule="evenodd" d="M18.564 53.4613C18.3924 53.6349 18.1778 53.8085 18.0062 53.9388C17.7058 54.1558 17.4054 54.3728 17.0621 54.503H17.0192C14.7018 55.588 12.0412 54.8502 11.0542 52.8971L11.0113 52.8537C10.9255 52.6367 10.8396 52.4631 10.7967 52.2461C9.7668 49.5118 9.33767 46.9077 9.33767 44.4338V44.347C9.29476 35.6232 14.4014 28.8525 17.9203 25.2068C17.7916 25.4238 17.7058 25.6842 17.577 25.9446C16.8475 27.6807 16.4613 29.547 16.4613 31.5434C16.4613 31.8473 16.4613 32.1511 16.4613 32.4549C15.1739 37.3159 14.0581 45.7792 18.4782 53.3745C18.564 53.4179 18.564 53.4179 18.564 53.4613Z" fill="#DE0B14"/>
<path fill-rule="evenodd" clip-rule="evenodd" d="M31.095 56.8467C31.0521 57.1071 30.9662 57.3241 30.8375 57.5845C30.7087 57.8883 30.5371 58.2355 30.3225 58.5394V58.5828C28.8206 60.6226 26.1599 61.3171 24.3147 60.0584H24.2717C24.1001 59.9282 23.9284 59.798 23.7568 59.6244C21.5253 57.7147 19.8517 55.6314 18.5643 53.5481V53.5047C18.5643 53.5047 18.5643 53.4613 18.5213 53.4179C14.1013 45.8226 15.217 37.3593 16.5044 32.4983C16.5044 32.7587 16.5473 33.0191 16.5902 33.2795C16.8477 35.5798 17.6631 37.6631 18.8217 39.486C20.1091 44.347 23.3276 52.2895 31.0521 56.8467C31.095 56.8033 31.095 56.8033 31.095 56.8467Z" fill="#FFCB00"/>
<path fill-rule="evenodd" clip-rule="evenodd" d="M43.8828 55.5881C43.5824 58.1488 41.6083 60.0151 39.3769 59.7981H39.3339C39.1194 59.7981 38.9048 59.7547 38.6902 59.6679C35.815 59.1036 33.2832 58.1054 31.1375 56.8467C31.1375 56.8467 31.1375 56.8467 31.0946 56.8467C31.0946 56.8467 31.0517 56.8467 31.0517 56.8033C23.3702 52.2896 20.1517 44.3036 18.8643 39.4426C18.993 39.6596 19.1647 39.8766 19.3363 40.0937C20.6666 41.9165 22.3832 43.3922 24.3572 44.4772C27.919 48.0796 34.6993 53.5048 43.6682 53.7218C43.7111 53.7218 43.7111 53.7218 43.7111 53.7218C43.7969 53.9388 43.8398 54.1992 43.8828 54.4596C43.8828 54.8503 43.8828 55.2409 43.8828 55.5881Z" fill="#DE0B14"/>
<path fill-rule="evenodd" clip-rule="evenodd" d="M52.4228 52.3765C52.1653 52.4633 51.9507 52.5501 51.7791 52.5935C48.9468 53.4615 46.2862 53.8521 43.7972 53.7653H43.7543C43.7543 53.7653 43.7114 53.7653 43.6684 53.7653C34.6995 53.5483 27.9192 48.1231 24.3574 44.5208C24.6149 44.651 24.8295 44.7812 25.0869 44.868C25.7736 45.1718 26.4602 45.4756 27.2326 45.6492C27.7905 45.9096 28.4771 46.1266 29.2066 46.3002H29.1637C29.5499 46.387 29.9362 46.4738 30.3653 46.604C30.5369 46.6474 30.7515 46.6908 30.9232 46.7342C31.0948 46.7776 31.2665 46.821 31.3952 46.821C31.524 46.8644 31.6527 46.8644 31.7385 46.9078C32.0818 46.9513 32.3822 47.0381 32.5968 47.0815C32.6826 47.0815 32.7684 47.1249 32.8543 47.1249C32.9401 47.1249 33.0259 47.1683 33.1118 47.1683C33.1976 47.1683 33.2405 47.1683 33.2834 47.1683C33.3263 47.1683 33.3263 47.1683 33.3263 47.1683C38.7334 48.0363 45.9429 48.1665 52.3799 45.0416C52.6373 44.9114 52.9377 44.7378 53.0665 44.6944C53.324 44.9114 53.4527 45.2586 53.6673 45.5624C53.8818 45.8228 54.0535 46.17 54.2251 46.5172L54.268 46.5606C55.2551 48.8609 54.4397 51.465 52.4228 52.3765Z" fill="#EF7C1F"/>
<path fill-rule="evenodd" clip-rule="evenodd" d="M60.7478 38.2272C60.6191 38.4876 60.4474 38.6612 60.3187 38.7915C58.3447 41.1786 56.199 43.0014 53.8388 44.3469C53.7959 44.3469 53.7529 44.3903 53.7529 44.3903C53.3238 44.6507 52.8947 44.8677 52.4226 45.0847C45.9856 48.2096 38.7762 48.0794 33.3691 47.2114C33.3691 47.2114 33.3691 47.2114 33.3262 47.2114C33.2833 47.2114 33.2403 47.2114 33.1545 47.2114C33.0687 47.2114 32.9829 47.168 32.897 47.168C32.8112 47.168 32.7254 47.1246 32.6396 47.1246C32.3821 47.0812 32.0817 47.0378 31.7813 46.951C31.6526 46.9076 31.5238 46.9076 31.438 46.8642C31.2663 46.8208 31.1376 46.8208 30.9659 46.7774C30.7943 46.734 30.5797 46.6906 30.4081 46.6472C29.9789 46.5604 29.5927 46.4736 29.2065 46.3434H29.2494C28.5628 46.1264 27.8762 45.9093 27.2754 45.6923C28.6057 46.083 30.0218 46.3 31.5238 46.3C31.8671 46.3 32.2104 46.3 32.5967 46.2566C35.6435 46.0396 38.4758 44.9111 40.7502 43.175C45.2132 41.5258 52.2939 37.9234 56.2848 30.8923C56.5852 30.9791 56.9285 31.0659 57.2289 31.1961C57.6152 31.3264 58.0443 31.5434 58.3876 31.7604L58.4305 31.8038C60.9195 33.4096 61.9923 36.2742 60.7478 38.2272Z" fill="#DE0B14"/>
<path fill-rule="evenodd" clip-rule="evenodd" d="M59.1602 20.9969C59.1602 21.2573 59.1173 21.4743 59.1173 21.6913C58.8169 24.5992 58.0874 27.1165 57.0146 29.3734C57.0146 29.4168 56.9716 29.4168 56.9716 29.4602C56.7142 29.9376 56.4996 30.4151 56.1992 30.8925C52.2082 37.9236 45.1275 41.4825 40.6646 43.1318C40.9649 42.9148 41.2653 42.6544 41.5657 42.3939C43.1535 40.9617 44.4409 39.1388 45.2992 37.1423C45.385 36.8819 45.5138 36.6215 45.5996 36.3611C47.3161 34.191 48.6035 31.9775 49.5476 29.8508C49.5476 29.8074 49.5905 29.8074 49.5905 29.764C50.4917 27.7675 51.0925 25.8579 51.5216 24.1652C52.337 20.8667 52.6374 18.2626 52.6374 17.3945V17.3077C52.9378 17.1775 53.0236 17.1775 53.3669 17.1341C53.7102 17.0473 54.0964 17.0039 54.4827 17.0039H54.5256C57.0575 17.0473 59.1173 18.8268 59.1602 20.9969Z" fill="#FFCB00"/>
<path fill-rule="evenodd" clip-rule="evenodd" d="M33.8841 22.3423C33.8841 23.5576 32.8113 24.5992 31.5668 24.5992C30.2794 24.5992 29.2065 23.601 29.2065 22.3423C29.2065 21.0837 30.2365 20.0854 31.5668 20.0854C32.8113 20.0854 33.8841 21.0837 33.8841 22.3423Z" fill="#DE0B14"/>
<path fill-rule="evenodd" clip-rule="evenodd" d="M36.9741 32.0208H26.0741V30.0243C26.0741 29.5469 26.4174 29.1129 26.8036 29.1129H36.2445C36.6308 29.1129 36.9741 29.5035 36.9741 30.0243V32.0208ZM39.6347 26.1182H23.4134C22.7268 26.1182 22.1689 26.639 22.1689 27.3334V36.8818C22.1689 37.5328 22.7268 38.0536 23.4134 38.0536H26.6319C26.2886 37.9668 26.0741 37.6196 26.0741 37.1856V34.9287H36.9741V37.1856C36.9741 37.6196 36.7166 37.9668 36.4162 38.0536H39.6347C40.3213 38.0536 40.8792 37.5328 40.8792 36.8818V27.3334C40.8792 26.639 40.3213 26.1182 39.6347 26.1182Z" fill="#DE0B14"/>
<path d="M40.8792 39.4426H22.1689V40.5711H40.8792V39.4426Z" fill="#DE0B14"/>
</svg>
