<svg width="265" height="63" viewBox="0 0 265 63" fill="none" xmlns="http://www.w3.org/2000/svg">
<path d="M11.8747 45.2441L0 8.41748H9.77034L16.9854 33.67H17.286L24.8016 8.41748H34.121L21.9457 45.3945H11.8747V45.2441Z" fill="white"/>
<path d="M80.7182 16.835C81.7704 20.5928 82.6722 25.5531 82.6722 29.6116C82.6722 40.4341 77.7119 45.9957 68.5428 45.9957C61.3278 45.9957 57.8706 42.6888 57.8706 35.9247V16.835H67.19V34.7222C67.19 37.4278 67.4906 38.7806 69.595 38.7806C72.7516 38.7806 73.5031 34.4216 73.5031 29.9122C73.5031 25.7034 72.6013 20.7431 71.5491 16.835H80.7182Z" fill="white"/>
<path d="M109.578 24.6513C109.578 32.7682 100.409 34.2714 94.998 34.7223C95.1483 37.2776 97.1024 39.2317 100.56 39.2317C103.265 39.2317 105.67 38.0292 107.474 36.8267L109.879 42.9895C109.578 43.2901 105.37 46.1461 99.2068 46.1461C89.4365 46.1461 85.5283 40.2839 85.5283 31.8664C85.5283 23.7495 90.3383 16.0835 99.808 16.0835C105.67 16.0835 109.578 18.7891 109.578 24.6513ZM99.3571 22.547C96.6515 22.547 94.6974 25.2526 94.5471 29.1607C97.5534 29.0104 101.461 27.6576 101.461 24.952C101.612 23.4488 100.71 22.547 99.3571 22.547Z" fill="white"/>
<path d="M150.914 8.41748H160.684L162.639 45.3945H153.469L152.417 25.8538H152.267L146.254 41.6366H139.791L133.929 26.455H133.778L132.726 45.3945H123.708L125.812 8.41748H135.733L143.399 29.4613H143.549L150.914 8.41748Z" fill="white"/>
<path d="M189.394 24.6513C189.394 32.7682 180.225 34.2714 174.814 34.7223C174.964 37.2776 176.918 39.2317 180.376 39.2317C183.081 39.2317 185.486 38.0292 187.29 36.8267L189.695 42.9895C189.394 43.2901 185.186 46.1461 179.023 46.1461C169.252 46.1461 165.344 40.2839 165.344 31.8664C165.344 23.7495 170.154 16.0835 179.624 16.0835C185.636 16.0835 189.394 18.7891 189.394 24.6513ZM179.173 22.547C176.467 22.547 174.513 25.2526 174.363 29.1607C177.369 29.0104 181.277 27.6576 181.277 24.952C181.428 23.4488 180.526 22.547 179.173 22.547Z" fill="white"/>
<path d="M200.217 4.20874C203.223 4.20874 205.177 6.31312 205.177 8.86844C205.177 11.5741 203.223 13.5281 200.217 13.5281C197.21 13.5281 195.256 11.5741 195.256 8.86844C195.256 6.16281 197.06 4.20874 200.217 4.20874Z" fill="white"/>
<path d="M224.266 16.0835C228.776 16.0835 237.193 17.4363 237.193 30.5135C237.193 40.8851 231.03 46.2964 223.364 46.2964C215.398 46.2964 210.588 41.4864 210.588 31.4154C210.738 19.691 218.254 16.0835 224.266 16.0835ZM227.724 31.2651C227.724 25.5532 226.822 22.6973 223.966 22.6973C221.41 22.6973 220.208 25.7035 220.208 30.2129C220.208 35.0229 220.659 39.382 223.966 39.382C226.671 39.382 227.724 36.6764 227.724 31.2651Z" fill="white"/>
<path d="M250.571 45.244H241.252V22.2462L241.102 15.7827L248.016 16.8349L248.768 20.743C250.271 17.2858 251.623 16.8349 254.028 16.8349C255.381 16.8349 258.538 17.2858 260.041 18.0374L258.989 25.2524C257.786 24.6512 255.983 23.7493 254.479 23.7493C252.074 23.7493 250.421 25.2524 250.421 27.8077V45.244H250.571Z" fill="white"/>
<path d="M261.394 26.4553C261.845 28.8603 263.649 30.9647 263.649 33.3697C263.649 34.5722 262.897 35.7747 261.394 35.925C259.891 35.925 259.139 34.5722 259.139 33.3697C259.139 30.9647 260.943 28.8603 261.394 26.4553Z" fill="white"/>
<path d="M262.296 19.691C261.093 18.3382 259.59 17.7369 258.538 17.4363C257.937 17.286 257.486 16.9854 257.486 16.9854C257.486 16.9854 256.884 16.6847 256.884 15.7829V12.476H256.433V10.5219H255.532V8.1169H254.78V7.81627H255.081V7.06471H254.479V3.15657H255.381C255.381 3.15657 255.682 2.40501 256.433 2.40501C257.035 2.40501 257.335 2.55532 257.486 2.70563C257.786 3.00626 258.237 3.30688 258.688 3.30688C259.59 3.30688 260.342 2.55532 260.342 1.65344C260.342 0.751565 259.59 0 258.688 0C258.087 0 257.636 0.300626 257.335 0.751565C257.185 0.901877 256.884 0.901877 256.433 0.901877C255.682 0.901877 255.381 0.150313 255.381 0.150313H250.722C250.722 0.150313 250.421 0.901877 249.669 0.901877C249.218 0.901877 248.918 0.751565 248.768 0.751565C248.467 0.300626 248.016 0 247.415 0C246.513 0 245.761 0.751565 245.761 1.65344C245.761 2.55532 246.513 3.30688 247.415 3.30688C247.866 3.30688 248.317 3.15657 248.617 2.70563C248.768 2.55532 249.068 2.40501 249.669 2.40501C250.421 2.40501 250.722 3.15657 250.722 3.15657H251.623V7.06471H251.022V7.81627H251.323V8.1169H250.571V10.5219H249.82V12.476H249.519V15.7829C249.519 15.7829 249.519 16.6847 249.068 16.835C248.617 16.9854 248.467 16.835 248.467 16.835L248.166 16.5344C248.016 16.3841 247.866 16.3841 247.715 16.3841L246.964 16.2338L246.663 15.7829H245.31H241.102L241.252 23.4488L245.461 23.1482H246.813L247.114 22.6972L247.866 22.5469C248.016 22.5469 248.166 22.3966 248.317 22.3966L248.617 22.096C248.617 22.096 248.768 21.9457 249.218 22.096H249.97C249.97 22.096 250.271 22.2463 250.421 22.5469C250.571 22.8476 250.872 22.9979 251.473 22.9979C252.074 22.9979 255.081 22.9979 255.081 22.9979C255.081 22.9979 255.381 22.8476 255.832 22.6972C256.283 22.5469 256.584 22.096 257.335 22.096C258.087 22.096 258.838 22.9979 258.989 23.7494C259.139 24.2004 259.139 24.6513 259.139 24.9519C259.139 25.1023 259.289 25.2526 259.59 25.2526H264.099C264.25 25.2526 264.4 25.1023 264.4 24.9519C263.799 24.0501 263.649 21.1941 262.296 19.691Z" fill="white"/>
<path d="M36.6768 4.95972C37.5786 5.41066 38.4805 5.71128 39.3824 5.86159C39.9836 5.86159 40.5849 6.01191 41.1861 6.01191C42.088 6.01191 42.9899 6.16222 43.8918 6.01191C44.493 6.01191 45.0943 6.01191 45.5452 6.01191C46.5974 5.86159 47.4993 5.71128 48.5515 5.41066C48.8521 5.26034 49.1527 5.11003 49.4534 4.95972C49.4534 4.95972 49.4534 4.95972 49.4534 5.11003C49.4534 6.01191 49.4534 7.0641 49.4534 7.96598C49.4534 8.2666 49.303 8.41691 49.1527 8.56723C48.8521 8.86785 48.4012 9.01817 48.1005 9.01817C47.4993 9.16848 46.898 9.31879 46.2968 9.4691C45.0943 9.61942 43.8918 9.76973 42.6893 9.61942C41.7874 9.61942 41.0358 9.61942 40.134 9.4691C39.3824 9.31879 38.6308 9.16848 37.8793 8.86785C37.5786 8.71754 37.4283 8.71754 37.1277 8.41691C36.9774 8.2666 36.8271 8.11629 36.8271 7.81566C36.6768 6.91378 36.6768 6.01191 36.6768 4.95972Z" fill="white"/>
<path d="M36.6768 10.9723C36.9774 11.1226 37.1277 11.273 37.4283 11.273C38.0296 11.5736 38.6308 11.7239 39.2321 11.7239C39.8333 11.8742 40.2843 12.0245 40.8855 12.0245C41.3365 12.0245 41.7874 12.0245 42.2383 12.0245C42.8396 12.0245 43.5912 12.0245 44.1924 12.0245C45.2446 12.0245 46.4471 11.8742 47.4993 11.5736C48.1005 11.4233 48.7018 11.273 49.1527 10.9723C49.303 10.9723 49.303 10.822 49.4534 10.822C49.4534 10.822 49.4534 10.822 49.4534 10.9723C49.4534 12.0245 49.4534 12.9264 49.4534 13.9786C49.4534 14.1289 49.303 14.2792 49.1527 14.4295C48.8521 14.7302 48.5515 14.7302 48.2508 14.8805C47.6496 15.1811 46.898 15.1811 46.2968 15.3314C45.3949 15.4817 44.493 15.4817 43.7415 15.4817C43.2905 15.4817 42.9899 15.4817 42.539 15.4817C42.088 15.4817 41.6371 15.4817 41.1861 15.4817C40.5849 15.4817 39.9836 15.3314 39.5327 15.3314C38.9315 15.3314 38.4805 15.1811 38.0296 15.0308C37.7289 14.8805 37.278 14.7302 36.9774 14.5798C36.8271 14.4295 36.6768 14.2792 36.6768 13.9786C36.6768 12.9264 36.6768 12.0245 36.6768 10.9723Z" fill="white"/>
<path d="M49.4534 7.96582C49.4534 8.41676 49.4534 8.71738 49.4534 9.16832C49.4534 9.46895 49.4534 9.91989 49.4534 10.2205C49.4534 10.5211 49.4534 10.6715 49.4534 10.9721C49.4534 11.1224 49.303 11.2727 49.1527 11.423C48.8521 11.7236 48.4012 11.874 48.1005 12.0243C47.4993 12.1746 46.898 12.3249 46.2968 12.4752C44.944 12.6255 43.5912 12.7758 42.2383 12.6255C41.4868 12.6255 40.7352 12.4752 39.9836 12.4752C39.3824 12.3249 38.6308 12.1746 38.0296 12.0243C37.7289 11.874 37.278 11.7236 36.9774 11.5733C36.8271 11.423 36.6768 11.2727 36.6768 11.1224C36.6768 10.2205 36.6768 9.16832 36.6768 8.26645C36.6768 8.26645 36.6768 8.26645 36.6768 8.11613C36.8271 8.26645 36.9774 8.26645 37.278 8.41676C37.8793 8.71738 38.4805 8.8677 39.0818 9.01801C39.683 9.16832 40.4346 9.16832 41.1861 9.31864C41.9377 9.31864 42.539 9.31864 43.2905 9.46895C44.0421 9.46895 44.944 9.46895 45.6955 9.31864C46.5974 9.01801 47.4993 8.71738 48.5515 8.41676C48.8521 8.26645 49.1527 8.11613 49.4534 7.96582Z" fill="white"/>
<path d="M46.898 3.75757C47.1986 3.75757 47.3489 3.90788 47.6495 3.90788C48.1005 4.05819 48.5514 4.20851 49.0023 4.50913C49.1526 4.65945 49.303 4.65945 49.303 4.80976C49.4533 5.11038 49.4533 5.2607 49.303 5.56132C49.0023 5.86195 48.7017 6.01226 48.4011 6.01226C47.7998 6.31289 47.1986 6.4632 46.447 6.4632C45.9961 6.4632 45.3948 6.61351 44.9439 6.61351C44.3426 6.61351 43.7414 6.61351 42.9898 6.61351C42.3886 6.61351 41.9376 6.61351 41.3364 6.61351C40.2842 6.61351 39.0817 6.4632 37.8792 6.01226C37.5786 6.01226 37.1276 5.86195 36.827 5.56132C36.6767 5.41101 36.5264 5.2607 36.5264 5.11038C36.5264 4.80976 36.6767 4.65945 36.827 4.65945C37.1276 4.35882 37.5786 4.20851 38.0295 4.05819C38.3301 3.90788 38.6307 3.90788 39.0817 3.75757C39.0817 3.75757 39.0817 3.75757 39.232 3.75757C39.3823 4.20851 39.8333 4.50913 40.2842 4.65945C40.7351 4.80976 41.1861 4.96007 41.7873 4.96007C42.3886 4.96007 42.9898 5.11038 43.7414 4.96007C44.493 4.96007 45.3948 4.80976 46.1464 4.50913C46.2967 4.50913 46.5973 4.35882 46.7476 4.05819C46.7476 4.05819 46.898 3.90788 46.898 3.75757Z" fill="white"/>
<path d="M44.4932 3.15629C44.7938 3.15629 44.9441 3.15629 45.0944 3.30661C45.6957 3.45692 46.2969 3.45692 46.7479 3.75755C46.8982 3.75755 46.8982 3.90786 47.0485 3.90786C47.3491 4.05817 47.3491 4.3588 47.0485 4.50911C46.8982 4.65942 46.5975 4.80974 46.2969 4.80974C45.5453 5.11036 44.9441 5.11036 44.1925 5.26067C43.441 5.26067 42.6894 5.26067 41.9378 5.26067C41.036 5.26067 40.1341 5.11036 39.3825 4.80974C39.2322 4.65942 39.0819 4.50911 38.9316 4.50911C38.7813 4.3588 38.7813 4.20848 38.9316 4.05817C39.2322 3.75755 39.3825 3.75755 39.6831 3.60723C40.2844 3.45692 40.8857 3.30661 41.3366 3.30661H41.4869V3.15629C41.4869 2.70536 41.4869 2.25442 41.4869 1.80348C41.4869 1.65316 41.4869 1.65316 41.6372 1.50285C41.9378 1.50285 42.2385 1.35254 42.5391 1.35254C42.99 1.35254 43.5913 1.35254 44.0422 1.50285H44.1925C44.3428 1.50285 44.3428 1.65316 44.3428 1.80348C44.4932 2.1041 44.4932 2.55504 44.4932 3.15629Z" fill="white"/>
<path d="M191.198 49.1519C191.198 53.6612 191.198 58.1706 191.198 62.68C189.395 62.68 187.44 62.68 185.637 62.68C185.637 58.1706 185.637 53.6612 185.637 49.1519C186.689 49.1519 187.591 49.1519 188.643 49.1519L188.793 49.3022C188.793 49.4525 188.793 49.7531 188.793 49.9034C188.944 49.9034 189.094 49.9034 189.244 49.9034L189.395 49.7531C189.395 49.6028 189.395 49.4525 189.244 49.3022C189.244 49.3022 189.094 49.1519 188.944 49.1519C189.845 49.1519 190.447 49.1519 191.198 49.1519ZM189.244 61.0266C189.395 61.0266 189.395 60.8763 189.395 60.5756C189.395 60.4253 189.244 60.4253 189.244 60.4253C189.244 60.4253 189.244 60.275 189.094 60.275C189.244 60.275 189.395 60.4253 189.395 60.4253C189.395 60.1247 189.244 60.1247 189.094 60.1247C188.944 60.1247 188.793 60.275 188.793 60.4253C188.793 60.7259 188.793 60.8763 188.793 61.1769C188.944 61.0266 189.094 61.0266 189.244 61.0266Z" fill="white"/>
<path d="M188.793 60.8765C188.943 60.8765 189.094 60.8765 189.244 60.8765C189.394 60.8765 189.394 60.7262 189.394 60.4255C189.394 60.2752 189.244 60.2752 189.244 60.2752C189.244 60.2752 189.244 60.1249 189.094 60.1249C189.244 60.1249 189.394 60.2752 189.394 60.2752C189.394 59.9746 189.244 59.9746 189.094 59.9746C188.943 59.9746 188.793 60.1249 188.793 60.2752C188.793 60.4255 188.793 60.7262 188.793 60.8765Z" fill="white"/>
<path d="M187.384 61.7603L190.24 61.7603L190.24 58.9043L187.384 58.9043L187.384 61.7603Z" fill="white"/>
<path d="M187.528 51.1511L189.482 51.1511L189.482 49.1971L187.528 49.1971L187.528 51.1511Z" fill="white"/>
<path d="M191.047 60.7263C191.047 57.4195 191.047 53.9623 191.047 50.6554C191.047 50.5051 191.047 50.5051 191.198 50.3548C191.649 50.0541 192.1 49.7535 192.4 49.4529C193.603 48.4007 194.505 47.1982 194.655 45.5447C194.805 44.6429 194.805 43.741 194.805 42.8391C194.805 36.3757 194.805 29.7619 194.805 23.2984C194.805 23.1481 194.805 23.1481 194.805 22.9978C198.713 22.9978 202.621 22.9978 206.53 22.9978C206.53 26.0041 206.53 28.86 206.53 31.8663C206.379 31.716 206.229 31.716 206.079 31.8663C205.778 31.716 205.628 31.7159 205.628 32.0166C205.628 32.4675 205.628 32.9185 205.628 33.2191C205.778 33.2191 205.778 33.2191 205.928 33.2191C205.928 33.0688 205.928 33.0688 205.928 33.0688C205.928 32.7681 205.928 32.4675 205.928 32.3172C205.928 32.3172 205.928 32.1669 206.079 32.1669C206.079 32.1669 206.079 32.3172 206.229 32.3172V32.4675C206.229 32.7681 206.229 33.0688 206.229 33.3694C206.379 33.3694 206.379 33.3694 206.53 33.3694C206.53 32.9185 206.53 32.6178 206.53 32.1669C206.53 32.1669 206.53 32.1669 206.68 32.1669V32.3172C206.68 32.7681 206.68 33.2191 206.68 33.67C206.68 37.5782 206.68 41.6366 206.68 45.5447C206.68 47.0479 206.53 48.7013 206.079 50.2044C204.726 54.7138 202.02 57.7201 197.661 59.5238C196.158 60.1251 194.655 60.576 193.001 60.7263C192.4 60.8767 191.799 60.8767 191.198 61.027C191.047 60.8767 191.047 60.8767 191.047 60.7263ZM199.164 55.9163C199.315 56.0666 199.465 55.9163 199.615 55.9163C199.916 55.6157 200.367 55.3151 200.667 54.8641C202.471 52.9101 203.523 50.6554 203.974 48.2504C204.125 47.3485 204.125 46.5969 204.275 45.695C204.275 45.3944 204.125 45.2441 203.974 45.2441C203.674 45.0938 203.373 45.3944 203.373 45.695C203.373 46.2963 203.373 46.7472 203.223 47.3485C202.772 50.5051 201.419 53.2107 199.014 55.3151C198.864 55.4654 198.864 55.4654 198.713 55.766C198.864 55.766 199.014 55.9163 199.164 55.9163ZM203.373 41.9372C203.373 42.0875 203.373 42.0875 203.373 42.2379C203.373 42.3882 203.523 42.5385 203.824 42.5385C203.974 42.5385 204.275 42.3882 204.275 42.2379C204.275 42.0875 204.275 42.0875 204.275 41.9372C204.275 38.6303 204.275 35.4738 204.275 32.1669C204.275 32.0166 204.275 32.0166 204.275 31.8663C204.275 31.716 204.125 31.5656 203.824 31.5656C203.674 31.5656 203.523 31.716 203.373 31.8663C203.373 32.0166 203.373 32.0166 203.373 32.1669C203.373 33.8203 203.373 35.4738 203.373 36.9769C203.373 38.7807 203.373 40.4341 203.373 41.9372ZM205.177 31.8663C205.177 32.1669 205.177 32.4675 205.177 32.7681V32.9185C205.177 32.9185 205.177 33.0688 205.026 33.0688L204.876 32.9185C204.876 32.6178 204.876 32.3172 204.876 32.1669C204.876 32.0166 204.876 32.0166 204.876 31.8663C204.726 31.8663 204.726 31.8663 204.576 31.8663C204.576 32.0166 204.576 32.1669 204.576 32.3172C204.576 32.7681 204.576 33.0688 204.576 33.5197C204.576 33.8203 205.026 34.121 205.327 33.8203V33.67L205.177 33.5197C204.876 33.5197 204.876 33.5197 204.876 33.2191C205.177 33.3694 205.327 33.3694 205.327 32.9185C205.327 32.6178 205.327 32.1669 205.327 31.8663C205.327 31.8663 205.327 31.8663 205.177 31.8663ZM194.655 54.7138C194.655 54.4132 194.655 54.4132 194.354 54.4132C194.204 54.4132 194.054 54.4132 194.054 54.7138C194.054 54.8641 194.054 55.1648 194.054 55.3151V55.4654C194.204 55.4654 194.354 55.4654 194.505 55.4654C194.805 55.3151 194.655 55.0145 194.655 54.7138C194.505 54.8641 194.354 54.7138 194.354 54.7138V54.5635C194.505 54.7138 194.505 54.7138 194.655 54.7138ZM200.968 27.6575L201.118 27.5072C201.118 27.3569 201.118 27.2066 200.968 27.0563L200.818 26.9059C200.968 26.9059 200.968 26.9059 200.968 26.9059C200.968 26.9059 201.118 26.9059 201.118 27.0563C201.118 27.0563 201.118 27.0563 201.118 26.9059C201.118 26.9059 201.118 26.7556 200.968 26.7556C200.818 26.6053 200.517 26.7556 200.517 27.0563C200.517 27.3569 200.517 27.5072 200.517 27.8078C200.667 27.6575 200.818 27.6575 200.968 27.6575ZM201.118 49.1523C201.118 49.0019 200.968 48.8516 200.968 48.8516C200.818 48.8516 200.667 48.8516 200.667 49.1523C200.667 49.4529 200.667 49.6032 200.667 49.9038C200.818 49.9038 200.968 49.9038 201.118 49.9038L201.269 49.7535C201.269 49.6032 201.269 49.4529 201.118 49.4529L200.968 49.3026C200.968 49.3026 200.968 49.1523 200.818 49.1523C200.968 49.1523 200.968 49.1523 201.118 49.1523ZM200.818 37.8788H200.968C200.968 37.7285 200.968 37.7285 200.968 37.5782C200.818 37.5782 200.818 37.5782 200.667 37.5782L200.517 37.7285C200.517 37.8788 200.517 38.1794 200.517 38.3297V38.48C200.667 38.48 200.818 38.48 200.968 38.48C201.118 38.48 200.968 38.1794 200.818 38.0291C200.818 38.0291 200.818 38.0291 200.818 37.8788Z" fill="white"/>
<path d="M198.863 55.6159C199.014 55.7662 199.014 55.9165 199.164 55.9165C199.314 56.0669 199.465 55.9165 199.615 55.9165C199.915 55.6159 200.366 55.3153 200.667 54.8644C202.471 52.9103 203.523 50.6556 203.974 48.2506C204.124 47.3487 204.124 46.5971 204.275 45.6953C204.275 45.3946 204.124 45.2443 203.974 45.2443C203.673 45.094 203.373 45.3946 203.373 45.6953C203.373 46.2965 203.373 46.7475 203.222 47.3487C202.771 50.5053 201.419 53.2109 199.014 55.3153C199.014 55.3153 198.863 55.4656 198.863 55.6159Z" fill="white"/>
<path d="M203.373 37.1273C203.373 38.7807 203.373 40.4341 203.373 41.9373C203.373 42.0876 203.373 42.0876 203.373 42.2379C203.373 42.3882 203.523 42.5385 203.824 42.5385C203.974 42.5385 204.275 42.3882 204.275 42.2379C204.275 42.0876 204.275 42.0876 204.275 41.9373C204.275 38.6304 204.275 35.4738 204.275 32.1669C204.275 32.0166 204.275 32.0166 204.275 31.8663C204.275 31.716 204.125 31.5657 203.824 31.5657C203.674 31.5657 203.523 31.716 203.373 31.8663C203.373 32.0166 203.373 32.0166 203.373 32.1669C203.373 33.8204 203.373 35.4738 203.373 37.1273Z" fill="white"/>
<path d="M205.478 31.8662C205.328 31.8662 205.328 31.8662 205.177 31.8662C205.177 32.1668 205.177 32.4675 205.177 32.7681V32.9184C205.177 32.9184 205.177 33.0687 205.027 33.0687L204.877 32.9184C204.877 32.6178 204.877 32.3171 204.877 32.1668C204.877 32.0165 204.877 32.0165 204.877 31.8662C204.726 31.8662 204.726 31.8662 204.576 31.8662C204.576 32.0165 204.576 32.1668 204.576 32.3171C204.576 32.7681 204.576 33.0687 204.576 33.5197C204.576 33.8203 205.027 34.1209 205.328 33.8203V33.67L205.177 33.5197C204.877 33.5197 204.877 33.5197 204.877 33.219C205.177 33.3693 205.328 33.3693 205.328 32.9184C205.478 32.6178 205.478 32.3171 205.478 31.8662Z" fill="white"/>
<path d="M194.354 54.5636C194.505 54.5636 194.505 54.714 194.655 54.714C194.655 54.4133 194.655 54.4133 194.354 54.4133C194.204 54.4133 194.054 54.4133 194.054 54.714C194.054 54.8643 194.054 55.1649 194.054 55.3152V55.4655C194.204 55.4655 194.354 55.4655 194.505 55.4655C194.655 55.4655 194.505 55.1649 194.354 55.0146C194.354 55.0146 194.204 55.0146 194.204 54.8643C194.354 54.714 194.354 54.714 194.354 54.5636Z" fill="white"/>
<path d="M200.517 27.5075C200.667 27.5075 200.818 27.5075 200.818 27.5075L200.968 27.3572C200.968 27.2069 200.968 27.0565 200.818 26.9062L200.667 26.7559C200.818 26.7559 200.818 26.7559 200.818 26.7559C200.818 26.7559 200.968 26.7559 200.968 26.9062C200.968 26.9062 200.968 26.9062 200.968 26.7559C200.968 26.7559 200.968 26.6056 200.818 26.6056C200.667 26.4553 200.367 26.6056 200.367 26.9062C200.517 27.0565 200.517 27.3572 200.517 27.5075Z" fill="white"/>
<path d="M200.818 49.0021C200.968 49.0021 200.968 49.0021 201.118 49.1524V49.0021C201.118 48.8518 200.968 48.8518 200.968 48.8518C200.818 48.8518 200.667 48.8518 200.667 49.1524C200.667 49.4531 200.667 49.6034 200.667 49.904C200.818 49.904 200.968 49.904 201.118 49.904L201.269 49.7537C201.269 49.6034 201.269 49.4531 201.118 49.4531L200.968 49.3027C200.818 49.1524 200.818 49.1524 200.818 49.0021Z" fill="white"/>
<path d="M200.818 37.8788C200.968 37.8788 200.968 38.0291 201.118 38.0291C201.118 37.8788 201.118 37.8788 201.118 37.7285C200.968 37.7285 200.968 37.7285 200.818 37.7285L200.667 37.8788C200.667 38.0291 200.667 38.3298 200.667 38.4801V38.6304C200.818 38.6304 200.968 38.6304 201.118 38.6304C201.269 38.6304 201.118 38.3298 200.968 38.1795C200.818 38.0291 200.818 38.0291 200.818 37.8788Z" fill="white"/>
<path d="M193.339 57.3025L195.593 57.3025L195.593 52.9434L193.339 52.9434L193.339 57.3025Z" fill="white"/>
<path d="M198.163 56.5425L201.47 56.5425L201.47 47.2231L198.163 47.2231L198.163 56.5425Z" fill="white"/>
<path d="M200.522 50.552L205.031 50.552L205.031 44.2389L200.522 44.2389L200.522 50.552Z" fill="white"/>
<path d="M199.437 53.7769L203.646 53.7769L203.646 49.5681L199.437 49.5681L199.437 53.7769Z" fill="white"/>
<path d="M199.873 40.7278L202.128 40.7278L202.128 35.7675L199.873 35.7675L199.873 40.7278Z" fill="white"/>
<path d="M198.087 43.8428L206.504 43.8428L206.504 28.3605L198.087 28.3605L198.087 43.8428Z" fill="white"/>
<path d="M199.17 29.2053L202.778 29.2053L202.778 25.5978L199.17 25.5978L199.17 29.2053Z" fill="white"/>
<path d="M200.28 54.6587L202.384 54.6587L202.384 52.5543L200.28 52.5543L200.28 54.6587Z" fill="white"/>
<path d="M191.648 16.2336C197.511 16.2336 203.523 16.2336 209.385 16.2336C209.385 17.7368 209.385 19.2399 209.385 20.743C203.523 20.743 197.511 20.743 191.648 20.743C191.648 19.2399 191.648 17.7368 191.648 16.2336ZM200.818 17.8871C200.818 17.8871 200.968 17.8871 200.968 18.0374C200.968 18.0374 200.968 17.8871 200.818 17.8871C200.667 17.7368 200.367 17.8871 200.367 18.0374C200.367 18.1877 200.367 18.4883 200.367 18.6386V18.789C200.517 18.789 200.667 18.789 200.818 18.789C200.968 18.6386 200.818 18.4883 200.667 18.338C200.818 18.0374 200.818 18.0374 200.818 17.8871Z" fill="white"/>
<path d="M200.818 17.8872C200.968 17.8872 200.968 18.0375 201.118 18.0375C201.118 18.0375 201.118 17.8872 200.968 17.8872C200.818 17.7369 200.517 17.8872 200.517 18.0375C200.517 18.1878 200.517 18.4885 200.517 18.6388V18.7891C200.667 18.7891 200.818 18.7891 200.968 18.7891C201.118 18.6388 200.968 18.4885 200.818 18.3382C200.818 18.0375 200.818 18.0375 200.818 17.8872Z" fill="white"/>
<path d="M198.839 19.2417L202.747 19.2417L202.747 16.8367L198.839 16.8367L198.839 19.2417Z" fill="white"/>
<path d="M193.453 20.5925C193.753 21.1938 193.904 21.6447 194.204 22.246C194.355 22.246 194.355 22.246 194.505 22.246C194.655 22.246 194.655 22.246 194.805 22.3963V22.5466H194.655H194.505V22.6969C194.505 22.6969 194.655 22.6969 194.655 22.8472C194.805 22.9975 194.805 23.1478 194.805 23.2982C194.805 23.5988 194.805 23.5988 195.106 23.5988C196.459 23.5988 197.812 23.5988 199.165 23.5988C201.72 23.5988 204.125 23.5988 206.68 23.5988C206.83 23.5988 206.981 23.5988 206.981 23.2982C206.981 22.9975 207.131 22.6969 207.131 22.5466C207.281 22.0957 207.432 21.6447 207.582 21.1938C207.582 21.0435 207.582 21.0435 207.732 20.8932C202.922 20.5925 198.112 20.5925 193.453 20.5925Z" fill="white"/>
<path d="M194.655 23.1482L194.204 22.096L194.505 21.3445L195.106 21.9457L195.256 22.6973L194.655 23.1482Z" fill="white"/>
<path d="M54.4133 45.695H52.6096C52.309 45.695 52.1587 45.5446 51.858 45.3943L42.9896 38.029L34.2714 45.3943C34.1211 45.5446 33.8205 45.695 33.5198 45.695H31.5658C31.2652 45.695 30.9645 45.5446 30.6639 45.244C30.5136 44.9434 30.3633 44.6428 30.3633 44.3421L34.8727 17.7368C35.023 17.1355 35.4739 16.8349 35.9249 16.8349H39.9833C40.2839 16.8349 40.5846 16.9852 40.7349 17.1355L42.8393 19.3902L45.3946 16.9852C45.5449 16.8349 45.8455 16.6846 46.1461 16.6846H49.453C50.0543 16.6846 50.5052 17.1355 50.5052 17.5864L52.6096 29.0102L52.7599 29.7618V29.9121L55.3152 44.3421C55.3152 44.6428 55.3152 44.9434 55.0146 45.244C55.1649 45.5446 54.8643 45.695 54.4133 45.695ZM52.9102 43.4403H53.2108L51.1065 31.2649L44.7933 36.5259L52.9102 43.4403ZM32.9186 43.4403H33.0689L41.1858 36.5259L34.8727 31.2649L32.9186 43.4403ZM35.9249 29.1605L43.1399 35.1731L49.904 29.4612L43.1399 22.5468L35.9249 29.1605ZM44.643 20.8933L50.2046 26.6052L48.8518 18.789H46.8977L44.643 20.8933ZM37.1274 18.9393L35.9249 26.004L41.4864 20.743L39.6827 18.9393H37.1274Z" fill="white"/>
<path d="M51.8576 28.1084H34.271V30.3631H51.8576V28.1084Z" fill="white"/>
</svg>
